<?xml version="1.0" encoding="UTF-8" standalone="no"?>
<svg
   xmlns:dc="http://purl.org/dc/elements/1.1/"
   xmlns:cc="http://creativecommons.org/ns#"
   xmlns:rdf="http://www.w3.org/1999/02/22-rdf-syntax-ns#"
   xmlns:svg="http://www.w3.org/2000/svg"
   xmlns="http://www.w3.org/2000/svg"
   xmlns:xlink="http://www.w3.org/1999/xlink"
   xmlns:sodipodi="http://sodipodi.sourceforge.net/DTD/sodipodi-0.dtd"
   xmlns:inkscape="http://www.inkscape.org/namespaces/inkscape"
   width="24"
   height="42"
   viewBox="0 0 24 42"
   version="1.1"
   id="svg2"
   inkscape:version="0.91 r13725"
   sodipodi:docname="beaker.svg">
  <metadata
     id="metadata189">
    <rdf:RDF>
      <cc:Work
         rdf:about="">
        <dc:format>image/svg+xml</dc:format>
        <dc:type
           rdf:resource="http://purl.org/dc/dcmitype/StillImage" />
        <dc:title>Canvas.svg</dc:title>
      </cc:Work>
    </rdf:RDF>
  </metadata>
  <sodipodi:namedview
     pagecolor="#ffffff"
     bordercolor="#666666"
     borderopacity="1"
     objecttolerance="10"
     gridtolerance="10"
     guidetolerance="10"
     inkscape:pageopacity="0"
     inkscape:pageshadow="2"
     inkscape:window-width="1366"
     inkscape:window-height="744"
     id="namedview187"
     showgrid="false"
     inkscape:zoom="21.512605"
     inkscape:cx="11.870418"
     inkscape:cy="15.072028"
     inkscape:window-x="0"
     inkscape:window-y="24"
     inkscape:window-maximized="1"
     inkscape:current-layer="g87" />
  <title
     id="title4">Canvas.svg</title>
  <desc
     id="desc6">Created using Figma</desc>
  <g
     id="Canvas"
     transform="translate(-2029,-8)">
    <g
       id="g87">
      <g
         id="Group 782">
        <g
           id="Fill 1466">
          <path
             d="M 2052,45.7367 2050.35,49 2031.8029,49 2030,45.5779 l 8.8,-10.71899 0,-8.70221 4.4,0 0,8.70221 8.8,10.87779 z"
             id="use91"
             inkscape:connector-curvature="0"
             style="fill:#ffffff;fill-rule:evenodd" />
        </g>
        <g
           id="Fill 1467">
          <path
             d="m 2036.6,25.06888 1.1,1.08777 6.6,0 1.1,-1.08777 -1.1,-1.08778 -6.6,0 -1.1,1.08778 z"
             id="use94"
             inkscape:connector-curvature="0"
             style="fill:#ffffff;fill-rule:evenodd" />
        </g>
        <g
           id="Fill 4181">
          <path
             d="m 2034.5575,40.812731 12.8998,0.09297 4.3103,6.531199 -1.4176,1.563141 -18.5471,0 -1.8959,-1.871424 z"
             id="use97"
             inkscape:connector-curvature="0"
             style="fill:#cce7ff;fill-rule:evenodd"
             sodipodi:nodetypes="ccccccc" />
        </g>
        <g
           id="Stroke 12490">
          <path
             d="m 2052,47.5283 0.4107,-0.2852 c 0.1441,0.2076 0.1107,0.4901 -0.078,0.6584 L 2052,47.5283 Z m -1.65,1.4717 0.3328,0.3732 c -0.092,0.0817 -0.21,0.1268 -0.3328,0.1268 l 0,-0.5 z m -18.5471,0 0,0.5 c -0.1239,0 -0.2435,-0.046 -0.3354,-0.1291 L 2031.8029,49 Z M 2030,47.3695 l -0.3354,0.3708 c -0.1873,-0.1694 -0.2189,-0.4519 -0.074,-0.6585 l 0.409,0.2877 z m 8.8,-12.51059 0.5,0 c 0,0.10298 -0.032,0.20344 -0.091,0.28767 l -0.409,-0.28767 z m 0,-8.70221 -0.5,0 c 0,-0.276142 0.2239,-0.5 0.5,-0.5 l 0,0.5 z m 4.4,0 0,-0.5 c 0.2761,0 0.5,0.223858 0.5,0.5 l -0.5,0 z m 0,8.70221 -0.4107,0.28524 c -0.058,-0.08374 -0.089,-0.18327 -0.089,-0.28524 l 0.5,0 z m 9.1328,13.04259 -1.65,1.4717 -0.6656,-0.7463 1.65,-1.4717 0.6656,0.7463 z m -1.9828,1.5985 -18.5471,0 0,-1 18.5471,0 0,1 z m -18.8825,-0.1291 -1.8029,-1.6306 0.6708,-0.7416 1.8029,1.6305 -0.6708,0.7417 z m -1.8765,-2.2891 8.8,-12.51055 0.818,0.57533 -8.8,12.51062 -0.818,-0.5754 z m 8.709,-12.22289 0,-8.70221 1,0 0,8.70221 -1,0 z m 0.5,-9.20221 4.4,0 0,1 -4.4,0 0,-1 z m 4.9,0.5 0,8.70221 -1,0 0,-8.70221 1,0 z m -0.089,8.41698 8.8,12.66942 -0.8214,0.5705 -8.8,-12.66945 0.8214,-0.57047 z"
             id="use100"
             inkscape:connector-curvature="0"
             style="fill:#1078ff" />
        </g>
        <g
           id="Stroke 12491">
          <path
             d="m 2036.6,25.06888 -0.3516,0.35552 c -0.095,-0.09392 -0.1484,-0.22195 -0.1484,-0.35552 0,-0.13358 0.053,-0.261603 0.1484,-0.355526 l 0.3516,0.355526 z m 1.1,1.08777 0,0.5 c -0.1316,0 -0.258,-0.05191 -0.3516,-0.14447 l 0.3516,-0.35553 z m 6.6,0 0.3516,0.35553 c -0.094,0.09256 -0.22,0.14447 -0.3516,0.14447 l 0,-0.5 z m 1.1,-1.08777 0.3516,-0.355526 c 0.095,0.09392 0.1484,0.221946 0.1484,0.355526 0,0.13357 -0.053,0.2616 -0.1484,0.35552 L 2045.4,25.06888 Z m -1.1,-1.08778 0,-0.5 c 0.1316,0 0.258,0.05191 0.3516,0.144477 L 2044.3,23.9811 Z m -6.6,0 -0.3516,-0.355523 c 0.094,-0.09256 0.22,-0.144477 0.3516,-0.144477 l 0,0.5 z m -0.7484,0.732254 1.1,1.087776 -0.7032,0.71105 -1.1,-1.08778 0.7032,-0.711046 z m 0.7484,0.943296 6.6,0 0,1 -6.6,0 0,-1 z m 6.2484,0.14448 1.1,-1.087776 0.7032,0.711046 -1.1,1.08778 -0.7032,-0.71105 z m 1.1,-0.37673 -1.1,-1.087777 0.7032,-0.711046 1.1,1.087777 -0.7032,0.711046 z m -0.7484,-0.9433 -6.6,0 0,-1 6.6,0 0,1 z m -6.2484,-0.144477 -1.1,1.087777 -0.7032,-0.711046 1.1,-1.087777 0.7032,0.711046 z"
             id="use103"
             inkscape:connector-curvature="0"
             style="fill:#1078ff" />
        </g>
        <g
           id="Stroke 12492">
          <path
             d="m 2038.8,28.8322 c -0.2761,0 -0.5,-0.223858 -0.5,-0.5 0,-0.276142 0.2239,-0.5 0.5,-0.5 l 0,1 z m 2.2,-1 c 0.2761,0 0.5,0.223858 0.5,0.5 0,0.276142 -0.2239,0.5 -0.5,0.5 l 0,-1 z m -2.2,0 2.2,0 0,1 -2.2,0 0,-1 z"
             id="use106"
             inkscape:connector-curvature="0"
             style="fill:#1078ff" />
        </g>
        <g
           id="Stroke 12494">
          <path
             d="m 2038.8,31.0078 c -0.2761,0 -0.5,-0.223858 -0.5,-0.5 0,-0.276142 0.2239,-0.5 0.5,-0.5 l 0,1 z m 2.2,-1 c 0.2761,0 0.5,0.223858 0.5,0.5 0,0.276142 -0.2239,0.5 -0.5,0.5 l 0,-1 z m -2.2,0 2.2,0 0,1 -2.2,0 0,-1 z"
             id="use109"
             inkscape:connector-curvature="0"
             style="fill:#1078ff" />
        </g>
      </g>
      <g
         id="g111">
        <g
           id="Line 7">
          <path
             d="m 2042.47,43.6132 4.4,0 0,-1 -4.4,0 0,1 z"
             id="use114"
             inkscape:connector-curvature="0"
             style="fill:#1078ff" />
        </g>
        <g
           id="Line 2">
          <path
             d="m 2044.17,40.9057 0,4.41509 1,0 0,-4.41509 -1,0 z"
             id="use117"
             inkscape:connector-curvature="0"
             style="fill:#1078ff" />
        </g>
      </g>
      <g
         id="g119">
        <g
           id="g121">
          <path
             d="m 2041,20.066 4.4,0 0,-1 -4.4,0 0,1 z"
             id="use123"
             inkscape:connector-curvature="0"
             style="fill:#1078ff" />
        </g>
        <g
           id="g125">
          <path
             d="m 2042.7,17.3585 0,4.41509 1,0 0,-4.41509 -1,0 z"
             id="use127"
             inkscape:connector-curvature="0"
             style="fill:#1078ff" />
        </g>
      </g>
      <g
         id="g129">
        <g
           id="g131">
          <path
             d="m 2036.6,45.8208 4.4,0 0,-1 -4.4,0 0,1 z"
             id="use133"
             inkscape:connector-curvature="0"
             style="fill:#1078ff" />
        </g>
        <g
           id="g135">
          <path
             d="m 2038.3,43.1132 0,4.41509 1,0 0,-4.41509 -1,0 z"
             id="use137"
             inkscape:connector-curvature="0"
             style="fill:#1078ff" />
        </g>
      </g>
      <g
         id="Ellipse 2">
        <path
           d="m 2038.8,18.83015 c 0,1.21919 -0.985,2.20754 -2.2,2.20754 -1.215,0 -2.2,-0.98835 -2.2,-2.20754 0,-1.219197 0.985,-2.20755 2.2,-2.20755 1.215,0 2.2,0.988353 2.2,2.20755 z"
           id="use140"
           inkscape:connector-curvature="0"
           style="fill:#ffffff" />
        <mask
           id="mask7_outline_ins">
          <use
             xlink:href="#path23_fill"
             transform="translate(2034.4,16.6226)"
             id="use143"
             style="fill:#ffffff"
             x="0"
             y="0"
             width="100%"
             height="100%" />
        </mask>
        <g
           mask="url(#mask7_outline_ins)"
           id="g145">
          <use
             xlink:href="#path24_stroke_2x"
             transform="translate(2034.4,16.6226)"
             id="use147"
             style="fill:#1078ff"
             x="0"
             y="0"
             width="100%"
             height="100%" />
        </g>
      </g>
      <g
         id="g149">
        <path
           d="m 2043.93,12.20755 c 0,1.21919 -0.985,2.20754 -2.2,2.20754 -1.215,0 -2.2,-0.98835 -2.2,-2.20754 0,-1.219197 0.985,-2.20755 2.2,-2.20755 1.215,0 2.2,0.988353 2.2,2.20755 z"
           id="use151"
           inkscape:connector-curvature="0"
           style="fill:#ffffff" />
        <mask
           id="mask8_outline_ins">
          <use
             xlink:href="#path23_fill"
             transform="translate(2039.53,10)"
             id="use154"
             style="fill:#ffffff"
             x="0"
             y="0"
             width="100%"
             height="100%" />
        </mask>
        <g
           mask="url(#mask8_outline_ins)"
           id="g156">
          <use
             xlink:href="#path24_stroke_2x"
             transform="translate(2039.53,10)"
             id="use158"
             style="fill:#1078ff"
             x="0"
             y="0"
             width="100%"
             height="100%" />
        </g>
      </g>
    </g>
  </g>
  <defs
     id="defs160">
    <path
       id="path0_fill"
       d="M 4.80518,14.5746 C 2.82304,14.4592 1.26256,13.4254 0.271491,12.4447 L 1.53165,9.49774 C 2.07224,10.0746 4.65502,11.5169 6.42693,11.1996 6.90745,11.1131 7.44804,10.7092 7.44804,10.1035 7.47807,9.69964 7.11768,9.32465 6.81735,9.18043 6.51703,8.97851 5.58603,8.94967 4.98538,8.92082 4.29463,8.89194 3.51379,8.80544 2.67288,8.48814 1.14123,7.767 0.0600626,6.26701 -2.24204e-6,4.6805 -2.24204e-6,2.80554 0.780844,1.76711 1.59172,1.13251 3.21347,-0.0790078 5.4659,-0.194406 7.02758,0.209432 8.25891,0.497888 8.65303,0.782831 9.46391,1.53282 L 8.40907,4.59398 C 8.10874,4.39206 6.69722,3.75745 6.15664,3.61322 5.31573,3.38245 4.2646,3.49784 3.78408,3.7863 3.63392,3.87284 3.42369,4.19014 3.48376,4.59398 c 0,0.28846 0.27029,0.69228 0.48052,0.80766 0.42045,0.20192 0.81087,0.31732 1.38149,0.34617 0.78084,0 2.10227,-2e-5 3.09333,0.46151 1.6518,0.86537 2.6128,2.3365 2.4927,4.03838 -0.0901,1.4711 -1.14124,2.9134 -2.52273,3.6057 -1.05114,0.5769 -2.43263,0.8077 -3.60389,0.7212 z"
       inkscape:connector-curvature="0" />
    <path
       id="path1_stroke_2x"
       d="m 0.271491,12.4447 -0.919462,-0.3932 -0.267466,0.6255 0.483531,0.4785 0.703397,-0.7108 z M 1.53165,9.49774 2.26136,8.81398 1.21429,7.69653 0.612191,9.10456 1.53165,9.49774 Z m 4.89528,1.70186 0.17627,0.9844 9.7e-4,-2e-4 -0.17724,-0.9842 z m 1.02111,-1.0961 -0.99725,-0.0742 -0.00275,0.037 0,0.0372 1,0 z M 6.81735,9.18043 6.2594,10.0103 6.31934,10.0506 6.38444,10.0819 6.81735,9.18043 Z M 4.98538,8.92082 5.03335,7.92196 5.02715,7.9217 4.98538,8.92082 Z M 2.67288,8.48814 2.24691,9.39287 2.28277,9.40976 2.31985,9.42375 2.67288,8.48814 Z M -2.24204e-6,4.6805 -1,4.6805 -1,4.69943 -0.999286,4.71833 -2.24204e-6,4.6805 Z M 1.59172,1.13251 0.993236,0.331372 0.984245,0.338089 0.975407,0.345006 1.59172,1.13251 Z M 7.02758,0.209432 6.77722,1.17759 6.78833,1.18046 6.79949,1.18307 7.02758,0.209432 Z M 9.46391,1.53282 10.4093,1.8586 10.6219,1.24172 10.1429,0.798685 9.46391,1.53282 Z M 8.40907,4.59398 7.85111,5.42385 8.9307,6.1497 9.35451,4.91977 8.40907,4.59398 Z M 6.15664,3.61322 5.89199,4.57759 5.89886,4.57942 6.15664,3.61322 Z M 3.78408,3.7863 4.28339,4.65272 4.29112,4.64827 4.29877,4.64368 3.78408,3.7863 Z m -0.30032,0.80768 1,0 0,-0.07396 L 4.47288,4.44687 3.48376,4.59398 Z M 3.96428,5.40164 3.48313,6.27828 3.50691,6.29134 3.53137,6.30308 3.96428,5.40164 Z m 1.38149,0.34617 -0.05049,0.99872 0.02523,0.00128 0.02526,0 0,-1 z M 8.4391,6.20932 8.90317,5.32352 8.88246,5.31267 8.86126,5.3028 8.4391,6.20932 Z m 2.4927,4.03838 -0.99757,-0.0704 -5.7e-4,0.0093 0.99814,0.0611 z m -2.52273,3.6057 -0.44802,-0.894 -0.01672,0.0084 -0.0164,0.009 0.48114,0.8766 z M 4.86329,13.5762 C 3.13914,13.5104 1.89339,12.6495 0.974888,11.7339 l -1.406794,1.4216 C 0.63173,14.2013 2.50695,15.4079 4.74707,15.5729 L 4.86329,13.5762 Z M 1.19095,12.8378 2.45112,9.89091 0.612191,9.10456 -0.647971,12.0515 1.19095,12.8378 Z M 0.801944,10.1815 C 1.21586,10.6232 2.1506,11.1941 3.12996,11.6058 4.11605,12.0204 5.42643,12.3947 6.6032,12.184 L 6.25066,10.2153 C 5.65553,10.3218 4.78856,10.1336 3.90513,9.76217 3.01498,9.38791 2.38803,8.94915 2.26136,8.81398 L 0.801944,10.1815 Z m 5.802226,2.0023 c 0.75811,-0.1365 1.84387,-0.8136 1.84387,-2.0803 l -2,0 c 0,8e-4 -3e-5,-0.001 6.9e-4,-0.0041 0.00129,-0.0075 -0.00201,0.004 0.00101,-0.0036 3.3e-4,-0.001 5.5e-4,-0.0014 5.2e-4,-0.0014 -6e-5,2e-4 -0.00558,0.0117 -0.02529,0.0306 -0.02013,0.0194 -0.04919,0.0406 -0.08521,0.0587 -0.03639,0.0183 -0.0689,0.0279 -0.09007,0.0318 l 0.35448,1.9683 z M 8.44528,10.1776 C 8.48428,9.6532 8.26798,9.22141 8.05139,8.93775 7.84472,8.68019 7.49606,8.40363 7.25026,8.27899 L 6.38444,10.0819 c -0.00365,-0.0018 0.00877,0.0041 0.02955,0.0211 0.01999,0.0163 0.03672,0.034 0.04777,0.0485 0.01143,0.0149 0.00888,0.016 0.00285,-6e-4 C 6.45791,10.1325 6.4463,10.0897 6.45079,10.0293 l 1.99449,0.1483 z M 7.37531,8.35055 C 7.14264,8.19412 6.88026,8.12216 6.71037,8.08357 6.5319,8.04387 6.30964,8.01134 6.11782,7.99113 5.73939,7.95217 5.3285,7.93616 5.03335,7.92197 L 4.93741,9.91967 C 5.2429,9.93433 5.59784,9.94716 5.91016,9.98032 6.06371,9.99616 6.16805,10.0105 6.26738,10.0339 6.37529,10.0584 6.3419,10.0658 6.2594,10.0103 L 7.37531,8.35055 Z M 5.02715,7.9217 C 4.37062,7.89484 3.74719,7.83306 3.02592,7.55253 L 2.31985,9.42375 c 0.96054,0.35407 1.8988,0.4653 2.62376,0.4962 L 5.02715,7.9217 Z M 3.09886,7.5834 C 1.85993,7.00009 1.04341,5.80824 0.999282,4.64267 L -0.999286,4.71833 C -0.923285,6.72578 0.422532,8.53391 2.24691,9.39287 L 3.09886,7.5834 Z M 0.999998,4.6805 c 0,-1.53268 0.610592,-2.29293 1.208032,-2.76049 L 0.975407,0.345006 C -0.0489063,1.14665 -1,2.46326 -1,4.6805 l 1.999998,0 z M 2.1902,1.93364 C 3.50235,0.95341 5.41792,0.826081 6.77722,1.17759 L 7.27794,-0.758722 C 5.51387,-1.21489 2.92458,-1.11143 0.993236,0.331372 L 2.1902,1.93364 Z M 6.79949,1.18307 c 0.56296,0.13036 0.83513,0.22377 1.10989,0.38442 0.27237,0.14943 0.4837,0.33683 0.87552,0.69946 l 1.358,-1.468265 C 9.72386,0.411326 9.33268,0.0812656 8.89745,-0.17139 8.4646,-0.412816 7.92404,-0.606107 7.25567,-0.764208 L 6.79949,1.18307 Z M 8.51846,1.20703 7.46363,4.26819 9.35451,4.91977 10.4093,1.8586 8.51846,1.20703 Z M 8.96702,3.76411 C 8.7302,3.60488 8.21751,3.36144 7.77637,3.16695 7.30201,2.95799 6.74166,2.73615 6.41442,2.64702 L 5.89886,4.57942 C 6.1122,4.63451 6.5279,4.8021 6.96953,4.99698 7.18978,5.09404 7.39204,5.18785 7.56458,5.27291 7.73212,5.35527 7.8842,5.44759 7.85111,5.42385 L 8.96702,3.76411 Z M 6.42128,2.64887 C 5.89981,2.51131 5.2516,2.46906 4.75126,2.50858 4.24961,2.55085 3.69478,2.67357 3.2694,2.92892 L 4.29877,4.64368 C 4.35391,4.61058 4.5649,4.53137 4.91918,4.50152 5.27475,4.46893 5.57256,4.48436 5.892,4.57757 L 6.42128,2.64887 Z M 3.28477,2.91988 C 2.97682,3.09735 2.76616,3.38976 2.64447,3.65789 2.54068,3.90133 2.45414,4.36325 2.49464,4.7411 L 4.47288,4.44687 C 4.47405,4.45475 4.47296,4.46841 4.4657,4.48441 4.46241,4.49166 4.4545,4.50712 4.43595,4.52955 4.42234,4.54601 4.37597,4.59937 4.28339,4.65272 L 3.28477,2.91988 Z m -0.80101,1.6741 c 0,0.41046 0.17265,0.7716 0.31142,0.99552 0.13706,0.22115 0.36862,0.51352 0.68795,0.68878 L 4.44542,4.525 C 4.48512,4.54679 4.50941,4.56583 4.51885,4.57361 4.52926,4.58218 4.53267,4.5862 4.53021,4.58357 4.52433,4.5773 4.51038,4.56046 4.49518,4.53593 4.47988,4.51124 4.47261,4.49377 4.47112,4.48959 4.47066,4.48832 4.47326,4.49517 4.47623,4.51001 4.47912,4.5244 4.48376,4.55318 4.48376,4.59398 l -2,0 z m 1.04761,1.7091 C 4.0254,6.53677 4.60701,6.70472 5.29528,6.74653 L 5.39626,4.74908 C 4.9433,4.7332 4.74406,4.67035 4.39718,4.5002 L 3.53137,6.30308 Z m 1.8144,0.44473 c 0.82986,0 1.91671,0.01669 2.67118,0.36804 L 8.86126,5.3028 C 7.63359,4.73109 6.07759,4.74781 5.34577,4.74781 l 0,2 z m 2.62926,0.34731 c 1.37462,0.72016 2.04587,1.85467 1.95924,3.08218 l 1.99503,0.1408 C 12.0829,8.14185 10.8321,6.3341 8.90317,5.32352 l -0.92814,1.7716 z m 1.95863,3.09148 c -0.06534,1.067 -0.8641,2.2173 -1.97261,2.7728 l 0.89603,1.788 C 10.5116,13.9183 11.8151,12.1841 11.9299,10.3088 L 9.93366,10.1866 Z M 7.92793,12.9768 C 7.03036,13.4855 5.93058,13.6621 4.87886,13.5773 L 4.7315,15.5718 C 6.02231,15.66 7.68551,15.3751 8.89021,14.7301 L 7.92793,12.9768 Z"
       inkscape:connector-curvature="0" />
    <path
       id="path2_fill"
       d="m 9.61037,14.4517 -3.30356,0 L 2.46695e-6,0.0288643 3.87417,0.0288643 7.98861,9.69215 12.043,1.06239e-5 15.9772,0.0288643 9.61037,14.4517 Z"
       inkscape:connector-curvature="0" />
    <path
       id="path3_fill"
       d="M 11.8328,-2.36946e-6 11.8328,8.50945 C 10.6014,7.73062 9.15989,7.26911 7.5982,7.26911 3.4237,7.26911 2.76861e-6,10.5575 2.76861e-6,14.5959 2.76861e-6,18.6054 3.4237,21.8938 7.5982,21.8938 c 1.56169,0 3.0032,-0.4615 4.2346,-1.2403 l 0,1.0672 3.6339,0 0,-21.72070236946 -3.6339,0 z M 7.5982,18.4035 c -2.19236,0 -3.96429,-1.7307 -3.96429,-3.8076 0,-2.1057 1.77193,-3.8077 3.96429,-3.8077 2.19237,0 3.9643,1.702 3.9643,3.8077 0,2.0769 -1.77193,3.8076 -3.9643,3.8076 z"
       inkscape:connector-curvature="0" />
    <path
       id="path4_stroke_2x"
       d="m 11.8328,8.50945 -0.5346,0.84514 1.5346,0.97061 0,-1.81575 -1,0 z m 0,12.14405 1,0 0,-1.8158 -1.5346,0.9706 0.5346,0.8452 z m 0,1.0672 -1,0 0,1 1,0 0,-1 z m 3.6339,0 0,1 1,0 0,-1 -1,0 z m 0,-21.72070236946 1,0 L 16.4667,-1 l -1,0 0,0.99999763054 z m -4.6339,0 0,8.50945236946 2,0 0,-8.50945236946 -2,0 z M 12.3673,7.66432 C 11.0246,6.82456 9.31419,6.28108 7.5982,6.26911 l 0,2 c 1.40739,-0.01198 2.5801,0.36757 3.7,1.08548 L 12.3673,7.66432 Z M 7.5982,6.26911 c -4.69101,0 -8.598197,3.701 -8.598197,8.32679 L 1,14.5959 C 1,11.1449 3.94021,8.26911 7.5982,8.26911 l 0,-2 z m -8.598197,8.32679 c 0,4.5994 3.909797,8.2979 8.598197,8.2979 l 0,-2 C 3.9376,20.8938 1,18.0155 1,14.5959 l -1.999997,0 z M 7.5982,22.8938 c 1.71599,-0.012 3.4264,-0.5554 4.7691,-1.3952 l -1.0691,-1.6903 c -1.1199,0.7179 -2.29261,1.0975 -3.7,1.0855 l 0,2 z m 3.2346,-2.2403 0,1.0672 2,0 0,-1.0672 -2,0 z m 1,2.0672 3.6339,0 0,-2 -3.6339,0 0,2 z m 4.6339,-1 0,-21.72070236946 -2,0 0,21.72070236946 2,0 z m -1,-22.7207 -3.6339,0 0,1.999998 3.6339,0 0,-1.999998 z M 7.5982,17.4035 c -1.67346,0 -2.96429,-1.3158 -2.96429,-2.8076 l -2,0 c 0,2.662 2.25303,4.8076 4.96429,4.8076 l 0,-2 z M 4.63391,14.5959 c 0,-1.5158 1.28583,-2.8077 2.96429,-2.8077 l 0,-1.99995 c -2.70626,0 -4.96429,2.11205 -4.96429,4.80765 l 2,0 z M 7.5982,11.7882 c 1.67846,0 2.9643,1.2919 2.9643,2.8077 l 2,0 c 0,-2.6956 -2.258,-4.80765 -4.9643,-4.80765 l 0,1.99995 z m 2.9643,2.8077 c 0,1.4918 -1.29084,2.8076 -2.9643,2.8076 l 0,2 c 2.7113,0 4.9643,-2.1456 4.9643,-4.8076 l -2,0 z"
       inkscape:connector-curvature="0" />
    <path
       id="path5_fill"
       d="M 14.7159,8.36523 C 15.5267,4.12493 12.2532,5.67898e-6 7.5081,5.67898e-6 3.36363,5.67898e-6 -2.34628e-7,3.23071 -2.34628e-7,7.21141 -2.34628e-7,11.1921 3.36363,14.4228 7.5081,14.4228 c 2.34253,0 5.0454,-0.9519 6.457,-2.6827 L 11.5324,9.66329 C 10.6315,10.5863 9.24998,11.0767 7.5982,11.019 5.82629,10.9613 4.32466,10.0383 3.81411,8.36523 l 10.90179,0 z M 3.87417,5.76913 C 4.35469,4.41338 5.88635,3.2884 7.5081,3.2884 c 1.65178,0 3.1834,1.12498 3.6339,2.48073 l -7.26783,0 z"
       inkscape:connector-curvature="0" />
    <path
       id="path6_stroke_2x"
       d="m 13.9651,11.7401 0.7749,0.6321 0.618,-0.7577 -0.7436,-0.6349 -0.6493,0.7605 z M 11.5324,9.66329 12.1817,8.90276 11.4703,8.29533 10.8168,8.96479 11.5324,9.66329 Z M 7.5982,11.019 7.63311,10.0196 7.63074,10.0195 7.5982,11.019 Z m -3.78409,-2.65377 0,-1 -1.35069,0 0.39423,1.29188 0.95646,-0.29188 z M 3.87417,5.76913 2.93162,5.43506 2.45879,6.76913 l 1.41538,0 0,-1 z m 7.26783,0 0,1 1.3861,0 L 12.091,5.4538 11.142,5.76913 Z m 4.5561,2.78393 c 0.9316,-4.87159 -2.8325,-9.553054 -8.19,-9.553054 l 0,2.000004 c 4.1327,0 6.9157,3.56837 6.2256,7.1774 l 1.9644,0.37565 z m -8.19,-9.553054 C 2.84973,-0.999994 -1,2.64081 -1,7.21141 l 2,0 C 1,3.82062 3.87753,1.00001 7.5081,1.00001 l 0,-2.000004 z M -1,7.21141 c 0,4.57059 3.84973,8.21139 8.5081,8.21139 l 0,-2 C 3.87753,13.4228 1,10.6022 1,7.21141 l -2,0 z m 8.5081,8.21139 c 2.5396,0 5.5736,-1.0173 7.2319,-3.0506 l -1.5499,-1.2641 c -1.1647,1.4281 -3.53655,2.3147 -5.682,2.3147 l 0,2 z m 7.1063,-4.4432 -2.4327,-2.07684 -1.2986,1.52104 2.4327,2.0769 1.2986,-1.5211 z M 10.8168,8.96479 C 10.1578,9.63993 9.07567,10.07 7.6331,10.0196 L 7.56329,12.0184 C 9.4243,12.0834 11.1051,11.5328 12.248,10.3618 L 10.8168,8.96479 Z M 7.63074,10.0195 C 6.18645,9.97251 5.12933,9.249 4.77057,8.07336 L 2.85765,8.65711 c 0.66234,2.17049 2.60848,3.29299 4.70801,3.36139 l 0.06508,-1.999 z m -3.81663,-0.65427 10.90179,0 0,-2 -10.90179,0 0,2 z M 4.81672,6.1032 C 5.15267,5.15534 6.30052,4.2884 7.5081,4.2884 l 0,-2 c -2.03592,0 -3.95139,1.38303 -4.57648,3.14666 L 4.81672,6.1032 Z M 7.5081,4.2884 c 1.24692,0 2.37829,0.87319 2.6849,1.79606 L 12.091,5.4538 C 11.4967,3.66518 9.56474,2.2884 7.5081,2.2884 l 0,2 z m 3.6339,0.48073 -7.26783,0 0,2 7.26783,0 0,-2 z"
       inkscape:connector-curvature="0" />
    <path
       id="path7_fill"
       d="m 9.61037,14.4517 -3.30357,0 L 1.15973e-6,0.0288593 3.87417,0.0288593 7.98863,9.69214 12.043,5.67898e-6 15.9772,0.0288191 9.61037,14.4516 l 0,1e-4 z"
       inkscape:connector-curvature="0" />
    <path
       id="path8_stroke_2x"
       d="m 9.61037,14.4517 0,1 1.00003,0 0,-1 -1.00003,0 z m -3.30357,0 -0.91623,0.4006 0.26209,0.5994 0.65414,0 0,-1 z M 1.15973e-6,0.0288593 l 0,-1.0000003 -1.52871115973,0 0.61248,1.40065 L 1.15973e-6,0.0288593 Z m 3.87416884027,0 0.92007,-0.3917503 -0.25898,-0.60825 -0.66109,0 0,1.0000003 z M 7.98863,9.69214 7.06855,10.0839 7.99678,12.2639 8.91116,10.0781 7.98863,9.69214 Z M 12.043,5.67898e-6 12.0503,-0.999968 11.3794,-1.00488 11.1205,-0.385905 12.043,5.67898e-6 Z M 15.9772,0.0288191 16.8921,0.432664 17.5068,-0.960005 15.9846,-0.971154 15.9772,0.0288191 Z M 9.61037,14.4516 8.69554,14.0478 l -0.08517,0.1929 0,0.2109 1,0 z m 0,-0.9999 -3.30357,0 0,2 3.30357,0 0,-2 z M 7.22304,14.051 0.916233,-0.37179 -0.91623,0.429509 5.39057,14.8523 7.22304,14.051 Z M 1.15973e-6,1.02886 l 3.87416884027,0 0,-2.000001 -3.87416884027,0 0,2.000001 z M 2.9541,0.42061 7.06855,10.0839 8.9087,9.30039 4.79424,-0.362891 2.9541,0.42061 Z M 8.91116,10.0781 12.9655,0.385916 11.1205,-0.385905 7.06609,9.30623 8.91116,10.0781 Z M 12.0357,0.999979 15.9699,1.02879 15.9846,-0.971154 12.0503,-0.999968 12.0357,0.999979 Z M 15.0624,-0.375026 8.69554,14.0478 10.5252,14.8555 16.8921,0.432664 15.0624,-0.375026 Z M 8.61037,14.4516 l 0,1e-4 2.00003,0 0,-1e-4 -2.00003,0 z"
       inkscape:connector-curvature="0" />
    <path
       id="path9_fill"
       d="m 4.11527,18.4035 c -0.27029,0 -0.48052,-0.2307 -0.48052,-0.4904 0,-0.0865 -0.03,-0.1731 -0.03,-0.2596 0,-0.0865 0.03,-0.1731 0.03,-0.2596 l 0,-15.66316 C 3.63475,0.778838 2.82388,6.83796e-6 1.80278,6.83796e-6 0.811708,6.83796e-6 8.33096e-4,0.778838 8.33096e-4,1.73074 l 0,6.23066 0,8.6248 c 0,1.3558 -0.060070996,2.625 0.840900904,3.75 0.780846,0.9519 2.012176,1.5576 3.273536,1.5576 1.0211,0 1.83197,-0.7788 1.83197,-1.7596 0,-0.9519 -0.81087,-1.7307 -1.83197,-1.7307 z"
       inkscape:connector-curvature="0" />
    <path
       id="path10_stroke_2x"
       d="M 0.841734,20.3362 0.0611463,20.9613 0.0685777,20.9704 0.841734,20.3362 Z M 4.11527,17.4035 c 0.32208,0 0.51948,0.2579 0.51948,0.5096 l -2,0 c 0,0.771 0.61785,1.4904 1.48052,1.4904 l 0,-2 z m 0.51948,0.5096 c 0,-0.0782 -0.00673,-0.1453 -0.01303,-0.1938 C 4.61596,17.6767 4.60882,17.6342 4.60507,17.6126 4.60132,17.5909 4.60124,17.5888 4.6011,17.5895 c 6.7e-4,0.0052 0.00365,0.029 0.00365,0.064 l -2,0 c 0,0.0782 0.00673,0.1453 0.01303,0.1938 0.00576,0.0426 0.01291,0.0851 0.01666,0.1068 0.00375,0.0216 0.00383,0.0237 0.00397,0.023 -6.8e-4,-0.0052 -0.00366,-0.029 -0.00366,-0.064 l 2,0 z m -0.03,-0.2596 c 0,0.035 -0.00298,0.0588 -0.00366,0.064 1.4e-4,7e-4 2.2e-4,-0.0014 0.00397,-0.023 0.00375,-0.0216 0.01089,-0.0642 0.01666,-0.1068 0.0063,-0.0485 0.01303,-0.1156 0.01303,-0.1938 l -2,0 c 0,-0.035 0.00298,-0.0588 0.00366,-0.064 -1.4e-4,-7e-4 -2.2e-4,0.0014 -0.00397,0.023 -0.00375,0.0216 -0.01089,0.0642 -0.01666,0.1068 -0.0063,0.0485 -0.01303,0.1156 -0.01303,0.1938 l 2,0 z m 0.03,-0.2596 0,-15.66316 -2,0 0,15.66316 2,0 z m 0,-15.66316 c 0,-1.552315 -1.30798,-2.730733 -2.83197,-2.730733 l 0,2.000003 c 0.5182,0 0.83197,0.37924 0.83197,0.73073 l 2,0 z M 1.80278,-0.999993 c -1.504974,0 -2.801947,1.188929 -2.801947,2.730733 l 1.999997,0 c 0,-0.362 0.32478,-0.73073 0.80195,-0.73073 l 0,-2.000003 z m -2.801947,2.730733 0,6.23066 1.999997,0 0,-6.23066 -1.999997,0 z m 0,6.23066 0,8.6248 1.999997,0 0,-8.6248 -1.999997,0 z m 0,8.6248 c 0,1.258 -0.101533,2.9243 1.0603669,4.3751 L 1.62227,19.7111 C 0.982222,18.9119 1.00083,18.0397 1.00083,16.5862 l -1.999997,0 z m 1.0677447,4.3842 C 1.03389,22.1472 2.5459,22.8938 4.11527,22.8938 l 0,-2 c -0.95335,0 -1.90401,-0.4648 -2.50038,-1.1919 L 0.0685777,20.9704 Z M 4.11527,22.8938 c 1.53501,0 2.83197,-1.1889 2.83197,-2.7596 l -2,0 c 0,0.3909 -0.32478,0.7596 -0.83197,0.7596 l 0,2 z m 2.83197,-2.7596 c 0,-1.5523 -1.30798,-2.7307 -2.83197,-2.7307 l 0,2 c 0.5182,0 0.83197,0.3792 0.83197,0.7307 l 2,0 z"
       inkscape:connector-curvature="0" />
    <path
       id="path11_fill"
       d="M 13.4545,-1.21049e-6 C 12.4634,-1.21049e-6 11.8628,0.750001 11.8628,1.64421 l 0,0.14423 C 10.5714,0.778846 9.06978,0.115373 7.26784,0.115373 3.2435,0.115373 1.1061e-6,3.25956 1.1061e-6,7.09603 1.1061e-6,10.9325 3.2435,14.0478 7.26784,14.0478 c 1.80194,0 3.30356,-0.6346 4.59496,-1.7019 l 0,0.3462 c 0,0.8942 0.6006,1.6442 1.5917,1.6442 0.9911,0 1.7419,-0.75 1.7419,-1.6442 l 0,-11.04789 C 15.1964,0.750001 14.4456,-1.21049e-6 13.4545,-1.21049e-6 Z M 7.26784,10.6729 c -2.07224,0 -3.78408,-1.58652 -3.78408,-3.57687 0,-1.99035 1.71184,-3.6057 3.78408,-3.6057 2.0422,0 3.75406,1.61535 3.75406,3.6057 0,1.99035 -1.71186,3.57687 -3.75406,3.57687 z"
       inkscape:connector-curvature="0" />
    <path
       id="path12_stroke_2x"
       d="m 11.8628,1.78844 -0.6159,0.78782 1.6159,1.2633 0,-2.05112 -1,0 z m 0,10.55746 1,0 0,-2.1238 -1.6371,1.353 0.6371,0.7708 z M 13.4545,-1 c -1.6244,0 -2.5917,1.28245 -2.5917,2.64421 l 2,0 c 0,-0.22596 0.075,-0.38745 0.1617,-0.4821 0.0769,-0.08392 0.2032,-0.162111 0.43,-0.162111 L 13.4545,-1 Z m -2.5917,2.64421 0,0.14423 2,0 0,-0.14423 -2,0 z M 12.4787,1.00062 C 11.0854,-0.0789696 9.27631,-0.863068 7.26784,-0.884627 l 0,1.999997 C 8.86325,1.09381 10.0574,1.63666 11.2469,2.57626 L 12.4787,1.00062 Z M 7.26784,-0.884627 c -4.54099,0 -8.267839,3.556927 -8.267839,7.980657 L 1,7.09603 C 1,3.84682 3.76014,1.11537 7.26784,1.11537 l 0,-1.999997 z M -0.999999,7.09603 c 0,4.42897 3.732339,7.95177 8.267839,7.95177 l 0,-2 C 3.75465,13.0478 1,10.34 1,7.09603 l -1.999999,0 z M 7.26784,15.0478 c 2.00054,-0.0199 3.82226,-0.7796 5.23206,-1.9311 l -1.2742,-1.5416 c -1.1729,0.9831 -2.35452,1.4926 -3.95786,1.4727 l 0,2 z m 3.59496,-2.7019 0,0.3462 2,0 0,-0.3462 -2,0 z m 0,0.3462 c 0,1.3617 0.9673,2.6442 2.5917,2.6442 l 0,-2 c -0.2268,0 -0.3531,-0.0782 -0.43,-0.1621 -0.0867,-0.0947 -0.1617,-0.2562 -0.1617,-0.4821 l -2,0 z m 2.5917,2.6442 c 1.505,0 2.7419,-1.1601 2.7419,-2.6442 l -2,0 c 0,0.3043 -0.2647,0.6442 -0.7419,0.6442 l 0,2 z m 2.7419,-2.6442 0,-11.04789 -2,0 0,11.04789 2,0 z m 0,-11.04789 C 16.1964,0.160108 14.9595,-1 13.4545,-1 l 0,1.999999 c 0.4772,0 0.7419,0.339891 0.7419,0.644211 l 2,0 z M 7.26784,9.67288 c -1.57967,0 -2.78408,-1.19668 -2.78408,-2.57685 l -2,0 c 0,2.60052 2.21928,4.57687 4.78408,4.57687 l 0,-2.00002 z M 4.48376,7.09603 c 0,-1.39034 1.21516,-2.6057 2.78408,-2.6057 l 0,-2 c -2.57556,0 -4.78408,2.01534 -4.78408,4.6057 l 2,0 z m 2.78408,-2.6057 c 1.5336,0 2.75406,1.21033 2.75406,2.6057 l 2,0 c 0,-2.58533 -2.20326,-4.6057 -4.75406,-4.6057 l 0,2 z m 2.75406,2.6057 c 0,1.38517 -1.20973,2.57685 -2.75406,2.57685 l 0,2.00002 c 2.54007,0 4.75406,-1.98135 4.75406,-4.57687 l -2,0 z"
       inkscape:connector-curvature="0" />
    <path
       id="path13_fill"
       d="m 7.86848,7.29792 c -1.56168,0 -3.00323,0.46155 -4.23456,1.21153 l 0,-6.74986 C 3.63392,0.807684 2.82304,-1.21049e-6 1.83197,-1.21049e-6 0.810872,-1.21049e-6 -2.88257e-7,0.807684 -2.88257e-7,1.75959 l 0,18.34581 c 0,0.9519 0.810872288257,1.7307 1.831970288257,1.7307 0.81088,0 1.50163,-0.5192 1.74189,-1.2115 1.20129,0.8077 2.70291,1.2692 4.29462,1.2692 4.17452,0 7.59822,-3.2595 7.59822,-7.2979 0,-4.0384 -3.4237,-7.29798 -7.59822,-7.29798 z m 0,11.10558 c -2.19236,0 -3.96427,-1.7019 -3.96427,-3.8076 0,-2.1057 1.77191,-3.8077 3.96427,-3.8077 2.16232,0 3.96432,1.702 3.96432,3.8077 0,2.1057 -1.802,3.8076 -3.96432,3.8076 z"
       inkscape:connector-curvature="0" />
    <path
       id="path14_stroke_2x"
       d="m 3.63392,8.50945 -1,0 0,1.77995 L 4.15411,9.3635 3.63392,8.50945 Z M 3.57386,20.6246 4.13181,19.7947 3.05468,19.0705 2.62913,20.2967 3.57386,20.6246 Z M 7.86848,6.29792 C 6.15249,6.3099 4.44977,6.84986 3.11373,7.6554 L 4.15411,9.3635 C 5.28072,8.66907 6.46111,8.28594 7.86848,8.29792 l 0,-2 z m -3.23456,2.21153 0,-6.74986 -2,0 0,6.74986 2,0 z m 0,-6.74986 C 4.63392,0.238895 3.35868,-1 1.83197,-1 l 0,1.999999 c 0.45544,0 0.80195,0.376471 0.80195,0.759591 l 2,0 z M 1.83197,-1 C 0.286133,-1 -1,0.22825 -1,1.75959 l 2,0 C 1,1.38712 1.33561,0.999999 1.83197,0.999999 L 1.83197,-1 Z M -1,1.75959 l 0,18.34581 2,0 0,-18.34581 -2,0 z m 0,18.34581 c 0,1.5523 1.307976,2.7307 2.83197,2.7307 l 0,-2 C 1.31377,20.8361 1,20.4569 1,20.1054 l -2,0 z m 2.83197,2.7307 c 1.23681,0 2.30672,-0.789 2.68661,-1.8836 L 2.62913,20.2967 c -0.10062,0.29 -0.41221,0.5394 -0.79716,0.5394 l 0,2 z M 3.0159,21.4545 c 1.32875,0.8804 3.11232,1.4282 4.85258,1.4393 l 0,-2 C 6.42531,20.9049 5.20566,20.5297 4.13181,19.7947 L 3.0159,21.4545 Z m 4.85258,1.4393 c 4.68582,0 8.59822,-3.6671 8.59822,-8.2979 l -2,0 c 0,3.446 -2.935,6.2979 -6.59822,6.2979 l 0,2 z m 8.59822,-8.2979 c 0,-4.63081 -3.9124,-8.29798 -8.59822,-8.29798 l 0,2 c 3.66322,0 6.59822,2.85198 6.59822,6.29798 l 2,0 z m -8.59822,2.8076 c -1.67847,0 -2.96427,-1.2918 -2.96427,-2.8076 l -2,0 c 0,2.6956 2.25801,4.8076 4.96427,4.8076 l 0,-2 z M 4.90421,14.5959 c 0,-1.5158 1.28582,-2.8077 2.96427,-2.8077 l 0,-1.99995 c -2.70627,0 -4.96427,2.11205 -4.96427,4.80765 l 2,0 z m 2.96427,-2.8077 c 1.65345,0 2.96432,1.2967 2.96432,2.8077 l 2,0 c 0,-2.7005 -2.2931,-4.80765 -4.96432,-4.80765 l 0,1.99995 z m 2.96432,2.8077 c 0,1.511 -1.31085,2.8076 -2.96432,2.8076 l 0,2 c 2.67122,0 4.96432,-2.1072 4.96432,-4.8076 l -2,0 z"
       inkscape:connector-curvature="0" />
    <path
       id="path15_fill"
       d="m 0,19.58 1.65,3.2633 18.5471,0 L 22,19.4212 13.2,8.70221 13.2,0 8.8,0 8.8,8.70221 0,19.58 Z"
       inkscape:connector-curvature="0"
       style="fill-rule:evenodd" />
    <path
       id="path16_fill"
       d="m 8.8,1.08778 -1.1,1.08777 -6.6,0 L 0,1.08778 1.1,0 7.7,0 8.8,1.08778 Z"
       inkscape:connector-curvature="0"
       style="fill-rule:evenodd" />
    <path
       id="path17_fill"
       d="M 18.5581,0 3.52,0 0,4.62534 l 1.65,3.469 18.5471,0 L 22,4.45651 18.5581,0 Z"
       inkscape:connector-curvature="0"
       style="fill-rule:evenodd" />
    <path
       id="path18_stroke"
       d="m 0,21.3716 -0.410658,-0.2852 c -0.144188,0.2076 -0.110782,0.4901 0.077841,0.6584 L 0,21.3716 Z m 1.65,1.4717 -0.33282,0.3732 c 0.09161,0.0817 0.21007,0.1268 0.33282,0.1268 l 0,-0.5 z m 18.5471,0 0,0.5 c 0.1239,0 0.2435,-0.046 0.3354,-0.1291 L 20.1971,22.8433 Z M 22,21.2128 l 0.3354,0.3708 c 0.1873,-0.1694 0.2189,-0.4519 0.0736,-0.6585 L 22,21.2128 Z m -8.8,-12.51059 -0.5,0 c 0,0.10298 0.0318,0.20344 0.091,0.28767 L 13.2,8.70221 Z M 13.2,0 13.7,0 c 0,-0.276142 -0.2239,-0.5 -0.5,-0.5 l 0,0.5 z m -4.4,0 0,-0.5 C 8.52386,-0.5 8.3,-0.276142 8.3,0 l 0.5,0 z m 0,8.70221 0.41066,0.28524 C 9.26883,8.90371 9.3,8.80418 9.3,8.70221 l -0.5,0 z M -0.332817,21.7448 1.31718,23.2165 1.98282,22.4702 0.332817,20.9985 -0.332817,21.7448 Z M 1.65,23.3433 l 18.5471,0 0,-1 -18.5471,0 0,1 z m 18.8825,-0.1291 1.8029,-1.6306 -0.6708,-0.7416 -1.8029,1.6305 0.6708,0.7417 z m 1.8765,-2.2891 -8.8,-12.51055 -0.818,0.57533 8.8,12.51062 0.818,-0.5754 z M 13.7,8.70221 13.7,0 l -1,0 0,8.70221 1,0 z M 13.2,-0.5 l -4.4,0 0,1 4.4,0 0,-1 z M 8.3,0 l 0,8.70221 1,0 L 9.3,0 8.3,0 Z M 8.38934,8.41698 -0.410658,21.0864 0.410658,21.6569 9.21066,8.98745 8.38934,8.41698 Z"
       inkscape:connector-curvature="0" />
    <path
       id="path19_stroke"
       d="M 8.8,1.08778 9.15157,1.4433 C 9.24655,1.34938 9.3,1.22135 9.3,1.08778 9.3,0.9542 9.24655,0.826177 9.15157,0.732254 L 8.8,1.08778 Z m -1.1,1.08777 0,0.5 c 0.13164,0 0.25797,-0.05191 0.35157,-0.14447 L 7.7,2.17555 Z m -6.6,0 -0.351573,0.35553 C 0.84203,2.62364 0.968359,2.67555 1.1,2.67555 l 0,-0.5 z M 0,1.08778 -0.351573,0.732254 C -0.446552,0.826177 -0.5,0.9542 -0.5,1.08778 c 0,0.13357 0.053448,0.2616 0.148427,0.35552 L 0,1.08778 Z M 1.1,0 l 0,-0.5 c -0.131641,0 -0.25797,0.051914 -0.351573,0.144477 L 1.1,0 Z M 7.7,0 8.05157,-0.355523 C 7.95797,-0.448086 7.83164,-0.5 7.7,-0.5 l 0,0.5 z m 0.74843,0.732254 -1.1,1.087776 0.70314,0.71105 1.1,-1.08778 L 8.44843,0.732254 Z M 7.7,1.67555 l -6.6,0 0,1 6.6,0 0,-1 z M 1.45157,1.82003 0.351573,0.732254 -0.351573,1.4433 l 1.1,1.08778 L 1.45157,1.82003 Z M 0.351573,1.4433 1.45157,0.355523 0.748427,-0.355523 l -1.1,1.087777 L 0.351573,1.4433 Z M 1.1,0.5 l 6.6,0 0,-1 -6.6,0 0,1 z m 6.24843,-0.144477 1.1,1.087777 0.70314,-0.711046 -1.1,-1.087777 -0.70314,0.711046 z"
       inkscape:connector-curvature="0" />
    <path
       id="path20_stroke"
       d="M 2.2,0.5 C 2.47614,0.5 2.7,0.276142 2.7,0 2.7,-0.276142 2.47614,-0.5 2.2,-0.5 l 0,1 z M 0,-0.5 c -0.276142,0 -0.5,0.223858 -0.5,0.5 0,0.276142 0.223858,0.5 0.5,0.5 l 0,-1 z m 2.2,0 -2.2,0 0,1 2.2,0 0,-1 z"
       inkscape:connector-curvature="0" />
    <path
       id="path21_stroke"
       d="m 0,0.5 4.4,0 0,-1 -4.4,0 0,1 z"
       inkscape:connector-curvature="0" />
    <path
       id="path22_stroke"
       d="m 0,0.5 4.41509,0 0,-1 -4.41509,0 0,1 z"
       inkscape:connector-curvature="0" />
    <path
       id="path23_fill"
       d="M 4.4,2.20755 C 4.4,3.42674 3.41503,4.41509 2.2,4.41509 0.984974,4.41509 0,3.42674 0,2.20755 0,0.988353 0.984974,0 2.2,0 3.41503,0 4.4,0.988353 4.4,2.20755 Z"
       inkscape:connector-curvature="0" />
    <path
       id="path24_stroke_2x"
       d="m 3.4,2.20755 c 0,0.67014 -0.54048,1.20754 -1.2,1.20754 l 0,2 c 1.77054,0 3.2,-1.43929 3.2,-3.20754 l -2,0 z M 2.2,3.41509 C 1.54048,3.41509 1,2.87769 1,2.20755 l -2,0 c 0,1.76825 1.429463,3.20754 3.2,3.20754 l 0,-2 z M 1,2.20755 C 1,1.53741 1.54048,1 2.2,1 l 0,-2 C 0.429463,-1 -1,0.439299 -1,2.20755 l 2,0 z M 2.2,1 c 0.65952,0 1.2,0.53741 1.2,1.20755 l 2,0 C 5.4,0.439299 3.97054,-1 2.2,-1 l 0,2 z"
       inkscape:connector-curvature="0" />
    <mask
       id="mask1_outline_ins">
      <use
         height="100%"
         width="100%"
         y="0"
         x="0"
         style="fill:#ffffff"
         id="use30"
         transform="translate(2059,20)"
         xlink:href="#path3_fill" />
    </mask>
    <mask
       id="mask6_outline_ins">
      <use
         height="100%"
         width="100%"
         y="0"
         x="0"
         style="fill:#ffffff"
         id="use81"
         transform="translate(2132.53,20.002)"
         xlink:href="#path13_fill" />
    </mask>
    <mask
       id="mask5_outline_ins">
      <use
         height="100%"
         width="100%"
         y="0"
         x="0"
         style="fill:#ffffff"
         id="use71"
         transform="translate(2116.03,27.5019)"
         xlink:href="#path11_fill" />
    </mask>
    <mask
       id="mask4_outline_ins">
      <use
         height="100%"
         width="100%"
         y="0"
         x="0"
         style="fill:#ffffff"
         id="use61"
         transform="translate(2110.13,20.0309)"
         xlink:href="#path9_fill" />
    </mask>
    <mask
       id="mask3_outline_ins">
      <use
         height="100%"
         width="100%"
         y="0"
         x="0"
         style="fill:#ffffff"
         id="use50"
         transform="translate(2089.47,27.3845)"
         xlink:href="#path7_fill" />
    </mask>
    <mask
       id="mask2_outline_ins">
      <use
         height="100%"
         width="100%"
         y="0"
         x="0"
         style="fill:#ffffff"
         id="use40"
         transform="translate(2075.22,27.5287)"
         xlink:href="#path5_fill" />
    </mask>
    <mask
       id="mask0_outline_ins">
      <use
         height="100%"
         width="100%"
         y="0"
         x="0"
         style="fill:#ffffff"
         id="use15"
         transform="matrix(0.827475,0,0,0.827475,2100.64,29.9253)"
         xlink:href="#path0_fill" />
    </mask>
  </defs>
</svg>
