<svg width="12" height="12" viewBox="0 0 12 12" version="1.1" xmlns="http://www.w3.org/2000/svg" xmlns:xlink="http://www.w3.org/1999/xlink">
<title>&#128;&#219;&#157;</title>
<desc>Created using Figma</desc>
<g id="Canvas" transform="translate(-5330 318)">
<g id="sliders">
<g id="sliders">
<use xlink:href="#path0_fill" transform="translate(5330 -318)" fill="#F35958"/>
</g>
</g>
</g>
<defs>
<path id="path0_fill" fill-rule="evenodd" d="M 11.5 6.49996L 7.93 6.49996C 7.70542 7.38251 6.91073 8.00027 6 8.00027C 5.08927 8.00027 4.29458 7.38251 4.07 6.49996L 0.5 6.49996C 0.223858 6.49996 0 6.27612 0 6C 0 5.72387 0.223858 5.50003 0.5 5.50003L 4.07 5.50003C 4.29458 4.61749 5.08927 3.99973 6 3.99973C 6.91073 3.99973 7.70542 4.61749 7.93 5.50003L 11.5 5.50003C 11.7761 5.50003 12 5.72387 12 6C 12 6.27612 11.7761 6.49996 11.5 6.49996ZM 6 5.00006C 5.44772 5.00006 5 5.44775 5 5.99999C 5 6.55224 5.44772 6.99993 6 6.99993C 6.55228 6.99993 7 6.55224 7 5.99999C 7 5.44775 6.55228 5.00006 6 5.00006ZM 11.5 2.50024L 10.93 2.50024C 10.7054 3.38278 9.91073 4.00054 9 4.00054C 8.08927 4.00054 7.29458 3.38278 7.07 2.50024L 0.5 2.50024C 0.223858 2.50024 0 2.2764 0 2.00027C 0 1.72415 0.223858 1.50031 0.5 1.50031L 7.07 1.50031C 7.29458 0.617761 8.08927 0 9 0C 9.91073 0 10.7054 0.617761 10.93 1.50031L 11.5 1.50031C 11.7761 1.50031 12 1.72415 12 2.00027C 12 2.2764 11.7761 2.50024 11.5 2.50024ZM 9 1.00034C 8.44771 1.00034 8 1.44802 8 2.00027C 8 2.55252 8.44771 3.0002 9 3.0002C 9.55229 3.0002 10 2.55252 10 2.00027C 10 1.44802 9.55229 1.00034 9 1.00034ZM 0.5 9.49976L 1.07 9.49976C 1.29458 8.61721 2.08927 7.99945 3 7.99945C 3.91073 7.99945 4.70542 8.61721 4.93 9.49976L 11.5 9.49976C 11.7761 9.49976 12 9.7236 12 9.99972C 12 10.2758 11.7761 10.4997 11.5 10.4997L 4.93 10.4997C 4.70542 11.3822 3.91073 12 3 12C 2.08927 12 1.29458 11.3822 1.07 10.4997L 0.5 10.4997C 0.223858 10.4997 0 10.2758 0 9.99972C 0 9.7236 0.223858 9.49976 0.5 9.49976ZM 3 10.9997C 3.55228 10.9997 4 10.552 4 9.99975C 4 9.4475 3.55228 8.99982 3 8.99982C 2.44772 8.99982 2 9.4475 2 9.99975C 2 10.552 2.44772 10.9997 3 10.9997Z"/>
</defs>
</svg>
