<svg width="12" height="12" viewBox="0 0 12 12" version="1.1" xmlns="http://www.w3.org/2000/svg" xmlns:xlink="http://www.w3.org/1999/xlink">
<title>write.svg</title>
<desc>Created using Figma</desc>
<g id="Canvas" transform="translate(-4709 476)">
<g id="write">
<g id="write">
<use xlink:href="#path0_fill" transform="translate(4709 -476)" fill="#AAAAAA"/>
</g>
</g>
</g>
<defs>
<path id="path0_fill" fill-rule="evenodd" d="M 11 12L 1 12C 0.447715 12 0 11.5526 0 11.0007L 0 1.00747C 0 0.455559 0.447715 0.00814819 1 0.00814819L 7.405 0.00814819L 6.405 1.00747L 1 1.00747L 1 11.0007L 11 11.0007L 11 5.60084L 12 4.60152L 12 11.0007C 12 11.5526 11.5523 12 11 12ZM 5 9.50169L 2.505 9.50869L 2.5 7.00339L 9.275 0.288463C 9.45908 0.103801 9.70917 -1.42012e-14 9.97 1.45716e-27C 10.2308 1.42012e-14 10.4809 0.103801 10.665 0.288463L 11.705 1.33275C 11.8899 1.51746 11.9938 1.76801 11.9938 2.02928C 11.9938 2.29054 11.8899 2.5411 11.705 2.7258L 5 9.50169ZM 3.5 8.50237L 5 8.50237L 3.5 7.00339L 3.5 8.50237ZM 9.97 0.984985L 4.5 6.50373L 5.5 7.50305L 11.01 2.02927L 9.97 0.984985Z"/>
</defs>
</svg>
