<svg width="12" height="13" viewBox="0 0 12 13" version="1.1" xmlns="http://www.w3.org/2000/svg" xmlns:xlink="http://www.w3.org/1999/xlink">
<title>&#224;&#242;&#188;</title>
<desc>Created using Figma</desc>
<g id="Canvas" transform="translate(-5330 281)">
<g id="Docs-icon">
<g id="Duotone">
<g id="Vector">
<use xlink:href="#path0_fill" transform="translate(5330.75 -280.213)" fill="#FFFFFF"/>
</g>
<g id="Vector">
<use xlink:href="#path1_fill" transform="translate(5330.75 -272.682)" fill="#FFD8D8"/>
</g>
<g id="Vector">
<use xlink:href="#path2_fill" transform="translate(5333.75 -278.555)" fill="#FFD8D8"/>
</g>
<g id="Vector">
<use xlink:href="#path3_fill" transform="matrix(0.705717 -0.708481 0.705717 0.708481 5334.97 -271.93)" fill="#FFD8D8"/>
</g>
<g id="Vector">
<use xlink:href="#path4_stroke" transform="translate(5330.75 -280.213)" fill="#F35958"/>
</g>
<g id="Vector">
<use xlink:href="#path5_stroke" transform="translate(5333.75 -278.555)" fill="#F35958"/>
</g>
<g id="Vector">
<use xlink:href="#path6_stroke" transform="matrix(0.705717 -0.708481 0.705717 0.708481 5334.97 -271.93)" fill="#F35958"/>
</g>
</g>
</g>
</g>
<defs>
<path id="path0_fill" d="M 10 8.28231L 5 11.0431L 0 8.28231L 0 2.76077L 5 0L 10 2.76077L 10 8.28231Z"/>
<path id="path1_fill" d="M 9 0L 5 2.25881L 1 0L 0 0.752937L 5 3.51371L 10 0.752937L 9 0Z"/>
<path id="path2_fill" d="M 2.5 4.86899L 2.5 4.11606L 4 3.11214L 4 1.35529L 2 9.57409e-08L 0 1.2549L 0 2.3592L 2 1.10431L 3 1.85725L 3 2.61018L 1.5 3.6141L 1.5 4.86899L 2.5 4.86899Z"/>
<path id="path3_fill" d="M 1.05137 0L 0 0L 0 1.05137L 1.05137 1.05137L 1.05137 0Z"/>
<path id="path4_stroke" d="M 10 8.28231L 10.2417 8.72002C 10.4011 8.63202 10.5 8.46436 10.5 8.28231L 10 8.28231ZM 5 11.0431L 4.75832 11.4808C 4.90874 11.5638 5.09126 11.5638 5.24168 11.4808L 5 11.0431ZM 0 8.28231L -0.5 8.28231C -0.5 8.46436 -0.401053 8.63202 -0.241683 8.72002L 0 8.28231ZM 0 2.76077L -0.241683 2.32306C -0.401053 2.41106 -0.5 2.57872 -0.5 2.76077L 0 2.76077ZM 5 0L 5.24168 -0.437709C 5.09126 -0.520764 4.90874 -0.520764 4.75832 -0.437709L 5 0ZM 10 2.76077L 10.5 2.76077C 10.5 2.57872 10.4011 2.41106 10.2417 2.32306L 10 2.76077ZM 9.75832 7.8446L 4.75832 10.6054L 5.24168 11.4808L 10.2417 8.72002L 9.75832 7.8446ZM 5.24168 10.6054L 0.241683 7.8446L -0.241683 8.72002L 4.75832 11.4808L 5.24168 10.6054ZM 0.5 8.28231L 0.5 2.76077L -0.5 2.76077L -0.5 8.28231L 0.5 8.28231ZM 0.241683 3.19848L 5.24168 0.437709L 4.75832 -0.437709L -0.241683 2.32306L 0.241683 3.19848ZM 4.75832 0.437709L 9.75832 3.19848L 10.2417 2.32306L 5.24168 -0.437709L 4.75832 0.437709ZM 9.5 2.76077L 9.5 8.28231L 10.5 8.28231L 10.5 2.76077L 9.5 2.76077Z"/>
<path id="path5_stroke" d="M 2.5 4.86899L 2.5 5.36899C 2.77614 5.36899 3 5.14514 3 4.86899L 2.5 4.86899ZM 2.5 4.11606L 2.2219 3.70053C 2.08323 3.79334 2 3.9492 2 4.11606L 2.5 4.11606ZM 4 3.11214L 4.2781 3.52766C 4.41677 3.43486 4.5 3.279 4.5 3.11214L 4 3.11214ZM 4 1.35529L 4.5 1.35529C 4.5 1.18945 4.41777 1.0344 4.28049 0.941371L 4 1.35529ZM 2 9.57409e-08L 2.28049 -0.413916C 2.11641 -0.525102 1.90215 -0.528875 1.73426 -0.423532L 2 9.57409e-08ZM 0 1.2549L -0.265745 0.831363C -0.41151 0.922823 -0.5 1.08281 -0.5 1.2549L 0 1.2549ZM 0 2.3592L -0.5 2.3592C -0.5 2.54112 -0.401192 2.70869 -0.242 2.79674C -0.0828073 2.88479 0.111646 2.87942 0.265745 2.78274L 0 2.3592ZM 2 1.10431L 2.30075 0.704872C 2.13517 0.580198 1.90983 0.570613 1.73426 0.680776L 2 1.10431ZM 3 1.85725L 3.5 1.85725C 3.5 1.7002 3.42621 1.55227 3.30075 1.45781L 3 1.85725ZM 3 2.61018L 3.2781 3.02571C 3.41677 2.9329 3.5 2.77704 3.5 2.61018L 3 2.61018ZM 1.5 3.6141L 1.2219 3.19858C 1.08323 3.29138 1 3.44724 1 3.6141L 1.5 3.6141ZM 1.5 4.86899L 1 4.86899C 1 5.14514 1.22386 5.36899 1.5 5.36899L 1.5 4.86899ZM 3 4.86899L 3 4.11606L 2 4.11606L 2 4.86899L 3 4.86899ZM 2.7781 4.53158L 4.2781 3.52766L 3.7219 2.69662L 2.2219 3.70053L 2.7781 4.53158ZM 4.5 3.11214L 4.5 1.35529L 3.5 1.35529L 3.5 3.11214L 4.5 3.11214ZM 4.28049 0.941371L 2.28049 -0.413916L 1.71951 0.413916L 3.71951 1.7692L 4.28049 0.941371ZM 1.73426 -0.423532L -0.265745 0.831363L 0.265745 1.67843L 2.26574 0.423533L 1.73426 -0.423532ZM -0.5 1.2549L -0.5 2.3592L 0.5 2.3592L 0.5 1.2549L -0.5 1.2549ZM 0.265745 2.78274L 2.26574 1.52784L 1.73426 0.680776L -0.265745 1.93567L 0.265745 2.78274ZM 1.69925 1.50374L 2.69925 2.25668L 3.30075 1.45781L 2.30075 0.704872L 1.69925 1.50374ZM 2.5 1.85725L 2.5 2.61018L 3.5 2.61018L 3.5 1.85725L 2.5 1.85725ZM 2.7219 2.19466L 1.2219 3.19858L 1.7781 4.02962L 3.2781 3.02571L 2.7219 2.19466ZM 1 3.6141L 1 4.86899L 2 4.86899L 2 3.6141L 1 3.6141ZM 1.5 5.36899L 2.5 5.36899L 2.5 4.36899L 1.5 4.36899L 1.5 5.36899Z"/>
<path id="path6_stroke" d="M -1.90984e-07 -1.90984e-07L -1.90984e-07 -0.5C -0.276143 -0.5 -0.5 -0.276143 -0.5 -1.90984e-07L -1.90984e-07 -1.90984e-07ZM 1.05137 -1.90984e-07L 1.55137 -1.90984e-07C 1.55137 -0.276143 1.32751 -0.5 1.05137 -0.5L 1.05137 -1.90984e-07ZM 1.05137 1.05137L 1.05137 1.55137C 1.32751 1.55137 1.55137 1.32751 1.55137 1.05137L 1.05137 1.05137ZM -1.90984e-07 1.05137L -0.5 1.05137C -0.5 1.32751 -0.276143 1.55137 -1.90984e-07 1.55137L -1.90984e-07 1.05137ZM -1.90984e-07 0.5L 1.05137 0.5L 1.05137 -0.5L -1.90984e-07 -0.5L -1.90984e-07 0.5ZM 0.551372 -1.90984e-07L 0.551372 1.05137L 1.55137 1.05137L 1.55137 -1.90984e-07L 0.551372 -1.90984e-07ZM 1.05137 0.551372L -1.90984e-07 0.551372L -1.90984e-07 1.55137L 1.05137 1.55137L 1.05137 0.551372ZM 0.5 1.05137L 0.5 -1.90984e-07L -0.5 -1.90984e-07L -0.5 1.05137L 0.5 1.05137Z"/>
</defs>
</svg>
