<svg width="10" height="11" viewBox="0 0 10 11" version="1.1" xmlns="http://www.w3.org/2000/svg" xmlns:xlink="http://www.w3.org/1999/xlink">
<title>&#208;)&#171;</title>
<desc>Created using Figma</desc>
<g id="Canvas" transform="translate(-4557 -70)">
<g id="link-icon">
<g id="Duotone">
<g id="Vector">
<use xlink:href="#path0_stroke" transform="translate(4560.04 73.125)" fill="#399BE6"/>
</g>
<g id="Vector">
<use xlink:href="#path1_stroke" transform="translate(4562.02 70.625)" fill="#399BE6"/>
</g>
<g id="Vector">
<use xlink:href="#path2_stroke" transform="translate(4557.66 75.2083)" fill="#399BE6"/>
</g>
</g>
</g>
</g>
<defs>
<path id="path0_stroke" d="M -0.362322 3.82211C -0.552618 4.02221 -0.544666 4.33869 -0.344561 4.52899C -0.144456 4.71929 0.172026 4.71133 0.362322 4.51123L -0.362322 3.82211ZM 4.32474 0.344561C 4.51504 0.144456 4.50708 -0.172026 4.30698 -0.362322C 4.10687 -0.552618 3.79039 -0.544666 3.6001 -0.344561L 4.32474 0.344561ZM 0.362322 4.51123L 4.32474 0.344561L 3.6001 -0.344561L -0.362322 3.82211L 0.362322 4.51123Z"/>
<path id="path1_stroke" d="M 1.48506 3.85271C 1.21962 3.77658 0.942721 3.93005 0.866596 4.1955C 0.790471 4.46094 0.943943 4.73783 1.20939 4.81396L 1.48506 3.85271ZM 2.21895 4.58333L 2.08112 5.06396C 2.25856 5.11485 2.44959 5.06383 2.57804 4.93126L 2.21895 4.58333ZM 4.35866 2.375L 4.71775 2.72293C 4.83843 2.59838 4.88595 2.42019 4.84332 2.25209L 4.35866 2.375ZM 3.88317 0.5L 4.36783 0.377093C 4.32384 0.203621 4.19049 0.0668893 4.01817 0.0185696L 3.88317 0.5ZM 2.10008 0L 2.23508 -0.48143C 2.05514 -0.531889 1.86208 -0.477786 1.73456 -0.341166L 2.10008 0ZM 0 2.25L -0.365521 1.90883C -0.482244 2.03389 -0.526933 2.20994 -0.483987 2.37553L 0 2.25ZM -0.246242 3.29219C -0.176915 3.55949 0.0959728 3.71998 0.363271 3.65065C 0.63057 3.58133 0.791058 3.30844 0.721732 3.04114L -0.246242 3.29219ZM 1.20939 4.81396L 2.08112 5.06396L 2.35679 4.10271L 1.48506 3.85271L 1.20939 4.81396ZM 2.57804 4.93126L 4.71775 2.72293L 3.99957 2.02707L 1.85987 4.2354L 2.57804 4.93126ZM 4.84332 2.25209L 4.36783 0.377093L 3.39851 0.622907L 3.874 2.49791L 4.84332 2.25209ZM 4.01817 0.0185696L 2.23508 -0.48143L 1.96508 0.48143L 3.74817 0.98143L 4.01817 0.0185696ZM 1.73456 -0.341166L -0.365521 1.90883L 0.365521 2.59117L 2.4656 0.341166L 1.73456 -0.341166ZM -0.483987 2.37553L -0.246242 3.29219L 0.721732 3.04114L 0.483987 2.12447L -0.483987 2.37553Z"/>
<path id="path2_stroke" d="M 2.8736 0.730626C 3.13904 0.806751 3.41594 0.653279 3.49206 0.387837C 3.56819 0.122394 3.41472 -0.154501 3.14927 -0.230626L 2.8736 0.730626ZM 2.13971 0L 2.27754 -0.480626C 2.10011 -0.531512 1.90907 -0.480498 1.78062 -0.34793L 2.13971 0ZM 0 2.20833L -0.359089 1.8604C -0.479767 1.98495 -0.527288 2.16314 -0.484659 2.33124L 0 2.20833ZM 0.47549 4.08333L -0.00916831 4.20624C 0.0348233 4.37971 0.168175 4.51644 0.340491 4.56476L 0.47549 4.08333ZM 2.25858 4.58333L 2.12358 5.06476C 2.30352 5.11522 2.49658 5.06112 2.6241 4.9245L 2.25858 4.58333ZM 4.35866 2.33333L 4.72418 2.6745C 4.8409 2.54944 4.88559 2.37339 4.84265 2.20781L 4.35866 2.33333ZM 4.6049 1.29114C 4.53558 1.02384 4.26269 0.863354 3.99539 0.93268C 3.72809 1.00201 3.5676 1.27489 3.63693 1.54219L 4.6049 1.29114ZM 3.14927 -0.230626L 2.27754 -0.480626L 2.00187 0.480626L 2.8736 0.730626L 3.14927 -0.230626ZM 1.78062 -0.34793L -0.359089 1.8604L 0.359089 2.55626L 2.4988 0.34793L 1.78062 -0.34793ZM -0.484659 2.33124L -0.00916831 4.20624L 0.960149 3.96043L 0.484659 2.08543L -0.484659 2.33124ZM 0.340491 4.56476L 2.12358 5.06476L 2.39358 4.1019L 0.610489 3.6019L 0.340491 4.56476ZM 2.6241 4.9245L 4.72418 2.6745L 3.99314 1.99217L 1.89306 4.24217L 2.6241 4.9245ZM 4.84265 2.20781L 4.6049 1.29114L 3.63693 1.54219L 3.87467 2.45886L 4.84265 2.20781Z"/>
</defs>
</svg>
