<svg width="11" height="11" viewBox="0 0 11 11" version="1.1" xmlns="http://www.w3.org/2000/svg" xmlns:xlink="http://www.w3.org/1999/xlink">
<title>Group.svg</title>
<desc>Created using Figma</desc>
<g id="Canvas" transform="translate(-5330 355)">
<g id="Group">
<g id="Duotone">
<g id="Vector">
<use xlink:href="#path0_fill" transform="translate(5331 -354.471)" fill="#FFFFFF"/>
</g>
<g id="Vector">
<use xlink:href="#path1_fill" transform="translate(5331 -345.938)" fill="#FFD8D8"/>
</g>
<g id="Vector">
<use xlink:href="#path2_stroke" transform="translate(5332.5 -351.961)" fill="#F35958"/>
</g>
<g id="Vector">
<use xlink:href="#path2_stroke" transform="translate(5332.5 -350.456)" fill="#F35958"/>
</g>
<g id="Vector">
<use xlink:href="#path2_stroke" transform="translate(5332.5 -348.95)" fill="#F35958"/>
</g>
<g id="Vector">
<use xlink:href="#path3_stroke" transform="translate(5332.5 -347.444)" fill="#F35958"/>
</g>
<g id="Vector">
<use xlink:href="#path4_stroke" transform="translate(5331 -354.471)" fill="#F35958"/>
</g>
</g>
</g>
</g>
<defs>
<path id="path0_fill" d="M 9.5 0L 0 0L 0 9.53721L 9.5 9.53721L 9.5 0Z"/>
<path id="path1_fill" d="M 0 1.00392L 9.5 1.00392L 8.5 0L 1 0L 0 1.00392Z"/>
<path id="path2_stroke" d="M 0 -0.5C -0.276142 -0.5 -0.5 -0.276142 -0.5 0C -0.5 0.276142 -0.276142 0.5 0 0.5L 0 -0.5ZM 6.5 0.5C 6.77614 0.5 7 0.276142 7 0C 7 -0.276142 6.77614 -0.5 6.5 -0.5L 6.5 0.5ZM 0 0.5L 6.5 0.5L 6.5 -0.5L 0 -0.5L 0 0.5Z"/>
<path id="path3_stroke" d="M 0 -0.5C -0.276142 -0.5 -0.5 -0.276142 -0.5 0C -0.5 0.276142 -0.276142 0.5 0 0.5L 0 -0.5ZM 3.5 0.5C 3.77614 0.5 4 0.276142 4 0C 4 -0.276142 3.77614 -0.5 3.5 -0.5L 3.5 0.5ZM 0 0.5L 3.5 0.5L 3.5 -0.5L 0 -0.5L 0 0.5Z"/>
<path id="path4_stroke" d="M 0 0L 0 -0.5C -0.276142 -0.5 -0.5 -0.276142 -0.5 1.11022e-16L 0 0ZM 9.5 0L 10 0C 10 -0.276142 9.77614 -0.5 9.5 -0.5L 9.5 0ZM 9.5 9.53721L 9.5 10.0372C 9.77614 10.0372 10 9.81335 10 9.53721L 9.5 9.53721ZM 0 9.53721L -0.5 9.53721C -0.5 9.81335 -0.276142 10.0372 1.11022e-16 10.0372L 0 9.53721ZM 0 0.5L 9.5 0.5L 9.5 -0.5L 0 -0.5L 0 0.5ZM 9 0L 9 9.53721L 10 9.53721L 10 0L 9 0ZM 9.5 9.03721L 0 9.03721L 0 10.0372L 9.5 10.0372L 9.5 9.03721ZM 0.5 9.53721L 0.5 0L -0.5 0L -0.5 9.53721L 0.5 9.53721Z"/>
</defs>
</svg>
