<?xml version="1.0" encoding="UTF-8" standalone="no"?>
<!-- Created with Inkscape (http://www.inkscape.org/) -->

<svg
   xmlns:dc="http://purl.org/dc/elements/1.1/"
   xmlns:cc="http://creativecommons.org/ns#"
   xmlns:rdf="http://www.w3.org/1999/02/22-rdf-syntax-ns#"
   xmlns:svg="http://www.w3.org/2000/svg"
   xmlns="http://www.w3.org/2000/svg"
   xmlns:sodipodi="http://sodipodi.sourceforge.net/DTD/sodipodi-0.dtd"
   xmlns:inkscape="http://www.inkscape.org/namespaces/inkscape"
   width="256"
   height="66"
   viewBox="0 0 256 66.000001"
   id="svg4501"
   version="1.1"
   inkscape:version="0.91 r13725"
   sodipodi:docname="logo-caption.svg">
  <defs
     id="defs4503" />
  <sodipodi:namedview
     id="base"
     pagecolor="#ffffff"
     bordercolor="#666666"
     borderopacity="1.0"
     inkscape:pageopacity="0.0"
     inkscape:pageshadow="2"
     inkscape:zoom="0.35"
     inkscape:cx="-88.893018"
     inkscape:cy="53.607185"
     inkscape:document-units="px"
     inkscape:current-layer="layer1"
     showgrid="false"
     units="px"
     inkscape:showpageshadow="false"
     inkscape:window-width="1366"
     inkscape:window-height="744"
     inkscape:window-x="0"
     inkscape:window-y="24"
     inkscape:window-maximized="1" />
  <metadata
     id="metadata4506">
    <rdf:RDF>
      <cc:Work
         rdf:about="">
        <dc:format>image/svg+xml</dc:format>
        <dc:type
           rdf:resource="http://purl.org/dc/dcmitype/StillImage" />
        <dc:title></dc:title>
      </cc:Work>
    </rdf:RDF>
  </metadata>
  <g
     inkscape:label="Layer 1"
     inkscape:groupmode="layer"
     id="layer1"
     transform="translate(0,-986.36216)">
    <g
       transform="matrix(1.6055267,0,0,1.6055267,-9.5879492,372.98878)"
       id="g3603"
       style="font-style:normal;font-variant:normal;font-weight:normal;font-stretch:normal;font-size:10px;line-height:125%;font-family:'Somatic Rounded';-inkscape-font-specification:'Somatic Rounded';letter-spacing:0px;word-spacing:0px;fill:#ffffff;fill-opacity:1;stroke:#1078ff;stroke-width:1.20849633;stroke-linecap:butt;stroke-linejoin:miter;stroke-miterlimit:4;stroke-dasharray:none;stroke-opacity:1">
      <path
         sodipodi:nodetypes="cccccccccccccccccccccc"
         inkscape:connector-curvature="0"
         id="path3605"
         style="font-style:normal;font-variant:normal;font-weight:normal;font-stretch:normal;font-size:43.75px;font-family:Somatic;-inkscape-font-specification:Somatic;letter-spacing:-2px;fill:#ffffff;fill-opacity:1;stroke:#1078ff;stroke-width:1.20849633;stroke-miterlimit:4;stroke-dasharray:none;stroke-opacity:1"
         d="m 87.729793,422.5149 c -2.8875,-0.175 -5.160755,-1.74287 -6.604505,-3.23037 l 1.835755,-4.46963 c 0.7875,0.875 4.55,3.0625 7.13125,2.58125 0.7,-0.13125 1.4875,-0.74375 1.4875,-1.6625 0.04375,-0.6125 -0.48125,-1.18125 -0.91875,-1.4 -0.4375,-0.30625 -1.79375,-0.35 -2.66875,-0.39375 -1.00625,-0.0438 -2.14375,-0.175 -3.36875,-0.65625 -2.23125,-1.09375 -3.80625,-3.36875 -3.89375,-5.775 0,-2.84375 1.1375,-4.41875 2.31875,-5.38125 2.3625,-1.8375 5.64375,-2.0125 7.91875,-1.4 1.79375,0.4375 2.367893,0.86967 3.549143,2.00717 l -1.536643,4.64283 c -0.4375,-0.30625 -2.49375,-1.26875 -3.28125,-1.4875 -1.225,-0.35 -2.75625,-0.175 -3.45625,0.2625 -0.21875,0.13125 -0.525,0.6125 -0.4375,1.225 0,0.4375 0.39375,1.05 0.7,1.225 0.6125,0.30625 1.18125,0.48125 2.0125,0.525 1.1375,0 3.0625,0 4.50625,0.7 2.40625,1.3125 3.80625,3.54375 3.63125,6.125 -0.13125,2.23125 -1.6625,4.41875 -3.675,5.46875 -1.53125,0.875 -3.54375,1.225 -5.25,1.09375 z" />
    </g>
    <g
       style="font-style:normal;font-variant:normal;font-weight:normal;font-stretch:normal;font-size:10px;line-height:125%;font-family:'Somatic Rounded';-inkscape-font-specification:'Somatic Rounded';letter-spacing:0px;word-spacing:0px;fill:#ffffff;fill-opacity:1;stroke:none;stroke-width:1px;stroke-linecap:butt;stroke-linejoin:miter;stroke-opacity:1"
       id="text3607"
       transform="matrix(1.9402731,0,0,1.9402731,614.26644,14.233917)">
      <path
         d="m -255.98682,534.16025 -4.8125,0 -9.1875,-21.875 5.64375,0 5.99375,14.65625 5.90625,-14.7 5.73125,0.0438 -9.275,21.875 z"
         style="font-style:normal;font-variant:normal;font-weight:normal;font-stretch:normal;font-size:43.75px;font-family:Somatic;-inkscape-font-specification:Somatic;letter-spacing:-2px;fill:#ffffff;fill-opacity:1"
         id="path3637"
         inkscape:connector-curvature="0" />
    </g>
    <g
       transform="matrix(1.9402731,0,0,1.9402731,615.47911,14.233917)"
       style="font-style:normal;font-variant:normal;font-weight:normal;font-stretch:normal;font-size:10px;line-height:125%;font-family:'Somatic Rounded';-inkscape-font-specification:'Somatic Rounded';letter-spacing:0px;word-spacing:0px;fill:#1078ff;fill-opacity:1;stroke:none;stroke-width:1px;stroke-linecap:butt;stroke-linejoin:miter;stroke-opacity:1"
       id="text3611">
      <path
         inkscape:connector-curvature="0"
         d="m -299.97512,501.17432 0,12.90625 c -1.79375,-1.18125 -3.89375,-1.88125 -6.16875,-1.88125 -6.08125,0 -11.06875,4.9875 -11.06875,11.1125 0,6.08125 4.9875,11.06875 11.06875,11.06875 2.275,0 4.375,-0.7 6.16875,-1.88125 l 0,1.61875 5.29375,0 0,-32.94375 -5.29375,0 z m -6.16875,27.9125 c -3.19375,0 -5.775,-2.625 -5.775,-5.775 0,-3.19375 2.58125,-5.775 5.775,-5.775 3.19375,0 5.775,2.58125 5.775,5.775 0,3.15 -2.58125,5.775 -5.775,5.775 z"
         style="font-style:normal;font-variant:normal;font-weight:normal;font-stretch:normal;font-size:43.75px;font-family:Somatic;-inkscape-font-specification:Somatic;letter-spacing:-2px;fill:#1078ff;fill-opacity:1"
         id="path3640" />
      <path
         inkscape:connector-curvature="0"
         d="m -272.14035,525.28057 c 1.18125,-6.43125 -3.5875,-12.6875 -10.5,-12.6875 -6.0375,0 -10.9375,4.9 -10.9375,10.9375 0,6.0375 4.9,10.9375 10.9375,10.9375 3.4125,0 7.35,-1.44375 9.40625,-4.06875 l -3.54375,-3.15 c -1.3125,1.4 -3.325,2.14375 -5.73125,2.05625 -2.58125,-0.0875 -4.76875,-1.4875 -5.5125,-4.025 l 15.88125,0 z m -15.79375,-3.9375 c 0.7,-2.05625 2.93125,-3.7625 5.29375,-3.7625 2.40625,0 4.6375,1.70625 5.29375,3.7625 l -10.5875,0 z"
         style="font-style:normal;font-variant:normal;font-weight:normal;font-stretch:normal;font-size:43.75px;font-family:Somatic;-inkscape-font-specification:Somatic;letter-spacing:-2px;fill:#1078ff;fill-opacity:1"
         id="path3642" />
      <path
         inkscape:connector-curvature="0"
         d="m -258.83127,534.29307 -4.8125,0 -9.1875,-21.875 5.64375,0 5.99375,14.65625 5.90625,-14.7 5.73125,0.0437 -9.275,21.875 z"
         style="font-style:normal;font-variant:normal;font-weight:normal;font-stretch:normal;font-size:43.75px;font-family:Somatic;-inkscape-font-specification:Somatic;letter-spacing:-2px;fill:#1078ff;fill-opacity:1"
         id="path3644" />
    </g>
    <g
       style="font-style:normal;font-variant:normal;font-weight:normal;font-stretch:normal;font-size:10px;line-height:125%;font-family:'Somatic Rounded';-inkscape-font-specification:'Somatic Rounded';letter-spacing:0px;word-spacing:0px;fill:#1078ff;fill-opacity:1;stroke:none;stroke-width:1px;stroke-linecap:butt;stroke-linejoin:miter;stroke-opacity:1"
       id="text3615"
       transform="matrix(1.9402731,0,0,1.9402731,614.26644,14.233917)">
      <path
         d="m -233.82214,529.13362 c -0.39375,0 -0.7,-0.35 -0.7,-0.74375 0,-0.13125 -0.0437,-0.2625 -0.0437,-0.39375 0,-0.13125 0.0437,-0.2625 0.0437,-0.39375 l 0,-23.75625 c 0,-1.44375 -1.18125,-2.625 -2.66875,-2.625 -1.44375,0 -2.625,1.18125 -2.625,2.625 l 0,9.45 0,13.08125 c 0,2.05625 -0.0875,3.98125 1.225,5.6875 1.1375,1.44375 2.93125,2.3625 4.76875,2.3625 1.4875,0 2.66875,-1.18125 2.66875,-2.66875 0,-1.44375 -1.18125,-2.625 -2.66875,-2.625 z"
         style="font-style:normal;font-variant:normal;font-weight:normal;font-stretch:normal;font-size:43.75px;font-family:'Somatic Rounded';-inkscape-font-specification:'Somatic Rounded';letter-spacing:-2px;fill:#1078ff;fill-opacity:1"
         id="path3647"
         inkscape:connector-curvature="0" />
      <path
         d="m -211.61335,512.55237 c -1.44375,0 -2.31875,1.1375 -2.31875,2.49375 l 0,0.21875 c -1.88125,-1.53125 -4.06875,-2.5375 -6.69375,-2.5375 -5.8625,0 -10.5875,4.76875 -10.5875,10.5875 0,5.81875 4.725,10.54375 10.5875,10.54375 2.625,0 4.8125,-0.9625 6.69375,-2.58125 l 0,0.525 c 0,1.35625 0.875,2.49375 2.31875,2.49375 1.44375,0 2.5375,-1.1375 2.5375,-2.49375 l 0,-16.75625 c 0,-1.35625 -1.09375,-2.49375 -2.5375,-2.49375 z m -9.0125,16.1875 c -3.01875,0 -5.5125,-2.40625 -5.5125,-5.425 0,-3.01875 2.49375,-5.46875 5.5125,-5.46875 2.975,0 5.46875,2.45 5.46875,5.46875 0,3.01875 -2.49375,5.425 -5.46875,5.425 z"
         style="font-style:normal;font-variant:normal;font-weight:normal;font-stretch:normal;font-size:43.75px;font-family:'Somatic Rounded';-inkscape-font-specification:'Somatic Rounded';letter-spacing:-2px;fill:#1078ff;fill-opacity:1"
         id="path3649"
         inkscape:connector-curvature="0" />
      <path
         d="m -195.71618,512.24612 c -2.275,0 -4.375,0.7 -6.16875,1.8375 l 0,-10.2375 c 0,-1.44375 -1.18125,-2.66875 -2.625,-2.66875 -1.4875,0 -2.66875,1.225 -2.66875,2.66875 l 0,27.825 c 0,1.44375 1.18125,2.625 2.66875,2.625 1.18125,0 2.1875,-0.7875 2.5375,-1.8375 1.75,1.225 3.9375,1.925 6.25625,1.925 6.08125,0 11.06875,-4.94375 11.06875,-11.06875 0,-6.125 -4.9875,-11.06875 -11.06875,-11.06875 z m 0,16.84375 c -3.19375,0 -5.775,-2.58125 -5.775,-5.775 0,-3.19375 2.58125,-5.775 5.775,-5.775 3.15,0 5.775,2.58125 5.775,5.775 0,3.19375 -2.625,5.775 -5.775,5.775 z"
         style="font-style:normal;font-variant:normal;font-weight:normal;font-stretch:normal;font-size:43.75px;font-family:'Somatic Rounded';-inkscape-font-specification:'Somatic Rounded';letter-spacing:-2px;fill:#1078ff;fill-opacity:1"
         id="path3651"
         inkscape:connector-curvature="0" />
    </g>
  </g>
</svg>
