<svg width="43" height="60" viewBox="0 0 43 60" version="1.1" xmlns="http://www.w3.org/2000/svg" xmlns:xlink="http://www.w3.org/1999/xlink">
<title>&#216;*&#9;</title>
<desc>Created using Figma</desc>
<g id="Canvas" transform="translate(-1942 351)">
<g id="new-unit-icon">
<g id="Combined Shape" opacity="0.9">
<use xlink:href="#path0_fill" transform="translate(1943 -350)" fill="#F35958"/>
<use xlink:href="#path1_stroke" transform="translate(1943 -350)" fill="#FFFFFF"/>
</g>
<g id="new unit">
<use xlink:href="#path2_fill" transform="translate(1949 -308.609)" fill="#F35958"/>
</g>
</g>
</g>
<defs>
<path id="path0_fill" fill-rule="evenodd" d="M 4.90906 57.3913L 36.0411 57.3913C 38.7477 57.3913 40.9502 55.1968 40.9502 52.5L 40.9502 18.087C 40.9502 17.6533 40.7783 17.2391 40.4707 16.9343L 20.8344 0.477722C 20.5283 0.171204 20.1111 0 19.6775 0L 4.90906 0C 2.20251 0 0 2.19458 0 4.8913L 0 38.1956L 0 52.5C 0 55.1967 2.20251 57.3913 4.90906 57.3913ZM 3.27271 52.5L 3.27271 38.1956L 3.27271 4.8913C 3.27271 3.99133 4.00745 3.26086 4.90906 3.26086L 18 3.26093L 18 19.326C 18 20.2277 18.733 20.9565 19.6364 20.9565L 37.6775 20.9565L 37.6775 52.5C 37.6775 53.4 36.9427 54.1304 36.0411 54.1304L 4.90906 54.1304C 4.00745 54.1304 3.27271 53.4 3.27271 52.5ZM 36.3926 17.6956L 21.2727 5.14709L 21.2727 17.6956L 36.3926 17.6956Z"/>
<path id="path1_stroke" d="M 40.4707 16.9343L 41.1042 16.295L 41.0776 16.2686L 41.0488 16.2445L 40.4707 16.9343ZM 20.8344 0.477722L 20.1974 1.11361L 20.2257 1.14187L 20.2563 1.16751L 20.8344 0.477722ZM 4.90906 3.26086L 4.90906 2.36086L 4.90906 2.36086L 4.90906 3.26086ZM 18 3.26093L 18.9 3.26093L 18.9 2.36093L 18 2.36093L 18 3.26093ZM 37.6775 20.9565L 38.5775 20.9565L 38.5775 20.0565L 37.6775 20.0565L 37.6775 20.9565ZM 36.3926 17.6956L 36.3926 18.5956L 38.8862 18.5956L 36.9674 17.0031L 36.3926 17.6956ZM 21.2727 5.14709L 21.8475 4.45454L 20.3727 3.23057L 20.3727 5.14709L 21.2727 5.14709ZM 21.2727 17.6956L 20.3727 17.6956L 20.3727 18.5956L 21.2727 18.5956L 21.2727 17.6956ZM 36.0411 56.4913L 4.90906 56.4913L 4.90906 58.2913L 36.0411 58.2913L 36.0411 56.4913ZM 40.0502 52.5C 40.0502 54.6966 38.2537 56.4913 36.0411 56.4913L 36.0411 58.2913C 39.2417 58.2913 41.8502 55.6969 41.8502 52.5L 40.0502 52.5ZM 40.0502 18.087L 40.0502 52.5L 41.8502 52.5L 41.8502 18.087L 40.0502 18.087ZM 39.8372 17.5735C 39.9734 17.7085 40.0502 17.8922 40.0502 18.087L 41.8502 18.087C 41.8502 17.4145 41.5833 16.7698 41.1042 16.295L 39.8372 17.5735ZM 20.2563 1.16751L 39.8926 17.6241L 41.0488 16.2445L 21.4124 -0.212069L 20.2563 1.16751ZM 19.6775 0.9C 19.8748 0.9 20.0621 0.978087 20.1974 1.11361L 21.4713 -0.158166C 20.9945 -0.635679 20.3473 -0.9 19.6775 -0.9L 19.6775 0.9ZM 4.90906 0.9L 19.6775 0.9L 19.6775 -0.9L 4.90906 -0.9L 4.90906 0.9ZM 0.9 4.8913C 0.9 2.69471 2.6965 0.9 4.90906 0.9L 4.90906 -0.9C 1.70853 -0.9 -0.9 1.69446 -0.9 4.8913L 0.9 4.8913ZM 0.9 38.1956L 0.9 4.8913L -0.9 4.8913L -0.9 38.1956L 0.9 38.1956ZM 0.9 52.5L 0.9 38.1956L -0.9 38.1956L -0.9 52.5L 0.9 52.5ZM 4.90906 56.4913C 2.6965 56.4913 0.9 54.6966 0.9 52.5L -0.9 52.5C -0.9 55.6968 1.70853 58.2913 4.90906 58.2913L 4.90906 56.4913ZM 2.3727 38.1956L 2.3727 52.5L 4.17271 52.5L 4.17271 38.1956L 2.3727 38.1956ZM 2.3727 4.8913L 2.3727 38.1956L 4.17271 38.1956L 4.17271 4.8913L 2.3727 4.8913ZM 4.90906 2.36086C 3.51405 2.36086 2.3727 3.49063 2.3727 4.8913L 4.17271 4.8913C 4.17271 4.49204 4.50084 4.16086 4.90906 4.16086L 4.90906 2.36086ZM 18 2.36093L 4.90906 2.36086L 4.90905 4.16086L 18 4.16093L 18 2.36093ZM 18.9 19.326L 18.9 3.26093L 17.1 3.26093L 17.1 19.326L 18.9 19.326ZM 19.6364 20.0565C 19.2265 20.0565 18.9 19.7271 18.9 19.326L 17.1 19.326C 17.1 20.7284 18.2396 21.8565 19.6364 21.8565L 19.6364 20.0565ZM 37.6775 20.0565L 19.6364 20.0565L 19.6364 21.8565L 37.6775 21.8565L 37.6775 20.0565ZM 38.5775 52.5L 38.5775 20.9565L 36.7775 20.9565L 36.7775 52.5L 38.5775 52.5ZM 36.0411 55.0304C 37.4361 55.0304 38.5775 53.9008 38.5775 52.5L 36.7775 52.5C 36.7775 52.8993 36.4494 53.2304 36.0411 53.2304L 36.0411 55.0304ZM 4.90906 55.0304L 36.0411 55.0304L 36.0411 53.2304L 4.90906 53.2304L 4.90906 55.0304ZM 2.3727 52.5C 2.3727 53.9007 3.51405 55.0304 4.90906 55.0304L 4.90906 53.2304C 4.50084 53.2304 4.17271 52.8993 4.17271 52.5L 2.3727 52.5ZM 36.9674 17.0031L 21.8475 4.45454L 20.6979 5.83965L 35.8178 18.3882L 36.9674 17.0031ZM 20.3727 5.14709L 20.3727 17.6956L 22.1727 17.6956L 22.1727 5.14709L 20.3727 5.14709ZM 21.2727 18.5956L 36.3926 18.5956L 36.3926 16.7956L 21.2727 16.7956L 21.2727 18.5956Z"/>
<path id="path2_fill" d="M 5.03125 7L 4.27734 7L 1.41406 2.61719L 1.41406 7L 0.660156 7L 0.660156 1.3125L 1.41406 1.3125L 4.28516 5.71484L 4.28516 1.3125L 5.03125 1.3125L 5.03125 7ZM 9.65085 4.37109L 7.18601 4.37109L 7.18601 6.38672L 10.0493 6.38672L 10.0493 7L 6.43601 7L 6.43601 1.3125L 10.0102 1.3125L 10.0102 1.92969L 7.18601 1.92969L 7.18601 3.75781L 9.65085 3.75781L 9.65085 4.37109ZM 12.2822 5.20703L 12.3915 5.95703L 12.5517 5.28125L 13.6767 1.3125L 14.3095 1.3125L 15.4072 5.28125L 15.5634 5.96875L 15.6845 5.20312L 16.5673 1.3125L 17.3212 1.3125L 15.9423 7L 15.2587 7L 14.0869 2.85547L 13.997 2.42188L 13.9072 2.85547L 12.6923 7L 12.0087 7L 10.6337 1.3125L 11.3837 1.3125L 12.2822 5.20703Z"/>
</defs>
</svg>
