<svg width="12" height="14" viewBox="0 0 12 14" version="1.1" xmlns="http://www.w3.org/2000/svg" xmlns:xlink="http://www.w3.org/1999/xlink">
<title>&#128;&#219;&#157;</title>
<desc>Created using Figma</desc>
<g id="Canvas" transform="translate(-5330 431)">
<g id="Group 4">
<g id="Vector">
<use xlink:href="#path0_fill" transform="translate(5331 -423.741)" fill="#FFD8D8"/>
</g>
<g id="Vector">
<use xlink:href="#path1_stroke" transform="translate(5331 -429.765)" fill="#F35958"/>
</g>
</g>
</g>
<defs>
<path id="path0_fill" d="M 10.5 0L 0 6.0235L 0 0L 10.5 0Z"/>
<path id="path1_stroke" d="M 0 12.047L -0.5 12.047C -0.5 12.2254 -0.404962 12.3903 -0.250599 12.4797C -0.0962359 12.5691 0.0940681 12.5695 0.248801 12.4807L 0 12.047ZM 0 0L 0.248801 -0.433703C 0.0940681 -0.522468 -0.0962359 -0.522073 -0.250599 -0.432666C -0.404962 -0.34326 -0.5 -0.178386 -0.5 -9.63014e-17L 0 0ZM 10.5 6.0235L 10.7488 6.4572C 10.9042 6.36807 11 6.20263 11 6.0235C 11 5.84437 10.9042 5.67893 10.7488 5.5898L 10.5 6.0235ZM 0.5 12.047L 0.5 0L -0.5 0L -0.5 12.047L 0.5 12.047ZM -0.248801 0.433703L 10.2512 6.4572L 10.7488 5.5898L 0.248801 -0.433703L -0.248801 0.433703ZM 10.2512 5.5898L -0.248801 11.6133L 0.248801 12.4807L 10.7488 6.4572L 10.2512 5.5898Z"/>
</defs>
</svg>
