<svg width="13" height="13" viewBox="0 0 13 13" version="1.1" xmlns="http://www.w3.org/2000/svg" xmlns:xlink="http://www.w3.org/1999/xlink">
<title>&#160;&#178;&#145;</title>
<desc>Created using Figma</desc>
<g id="Canvas" transform="translate(-5329 394)">
<g id="Save-icon">
<g id="Duotone">
<g id="Vector">
<use xlink:href="#path0_fill" transform="translate(5330.25 -392.871)" fill="#FFFFFF"/>
</g>
<g id="Group">
<g id="Vector">
<use xlink:href="#path1_fill" transform="translate(5330.25 -383.334)" fill="#FFD8D8"/>
</g>
<g id="Vector">
<use xlink:href="#path2_fill" transform="translate(5335.75 -392.871)" fill="#FFD8D8"/>
</g>
</g>
<g id="Vector">
<use xlink:href="#path3_stroke" transform="translate(5330.25 -392.871)" fill="#F35958"/>
</g>
<g id="Vector">
<use xlink:href="#path4_stroke" transform="translate(5332.75 -392.871)" fill="#F35958"/>
</g>
<g id="Vector">
<use xlink:href="#path5_stroke" transform="translate(5331.75 -387.35)" fill="#F35958"/>
</g>
<g id="Vector">
<use xlink:href="#path6_stroke" transform="translate(5337.75 -391.868)" fill="#F35958"/>
</g>
<g id="Vector">
<use xlink:href="#path7_stroke" transform="translate(5333.25 -385.342)" fill="#F35958"/>
</g>
<g id="Vector">
<use xlink:href="#path8_stroke" transform="translate(5333.25 -383.836)" fill="#F35958"/>
</g>
</g>
</g>
</g>
<defs>
<path id="path0_fill" d="M 11 11.0431L 0 11.0431L 0 1.75685L 1.75 0L 11 0L 11 11.0431Z"/>
<path id="path1_fill" d="M 0 1.50587L 1.5 1.50587L 1.5 0L 0 1.50587Z"/>
<path id="path2_fill" d="M 3 2.50979L 3 3.51371L 2 3.51371L 0 5.52154L 4 5.52154L 4 11.0431L 5.5 11.0431L 5.5 0L 3 2.50979Z"/>
<path id="path3_stroke" d="M 11 11.0431L 11 11.5431C 11.2761 11.5431 11.5 11.3192 11.5 11.0431L 11 11.0431ZM 0 11.0431L -0.5 11.0431C -0.5 11.3192 -0.276142 11.5431 1.11022e-16 11.5431L 0 11.0431ZM 0 1.75685L -0.354244 1.40399C -0.44759 1.4977 -0.5 1.62458 -0.5 1.75685L 0 1.75685ZM 1.75 0L 1.75 -0.5C 1.61705 -0.5 1.48958 -0.447053 1.39576 -0.352862L 1.75 0ZM 11 0L 11.5 0C 11.5 -0.276142 11.2761 -0.5 11 -0.5L 11 0ZM 11 10.5431L 0 10.5431L 0 11.5431L 11 11.5431L 11 10.5431ZM 0.5 11.0431L 0.5 1.75685L -0.5 1.75685L -0.5 11.0431L 0.5 11.0431ZM 0.354244 2.10972L 2.10424 0.352862L 1.39576 -0.352862L -0.354244 1.40399L 0.354244 2.10972ZM 1.75 0.5L 11 0.5L 11 -0.5L 1.75 -0.5L 1.75 0.5ZM 10.5 0L 10.5 11.0431L 11.5 11.0431L 11.5 0L 10.5 0Z"/>
<path id="path4_stroke" d="M 0 0L 0 -0.5C -0.276142 -0.5 -0.5 -0.276142 -0.5 1.11022e-16L 0 0ZM 6 0L 6.5 0C 6.5 -0.276142 6.27614 -0.5 6 -0.5L 6 0ZM 6 3.51371L 6 4.01371C 6.27614 4.01371 6.5 3.78985 6.5 3.51371L 6 3.51371ZM 0 3.51371L -0.5 3.51371C -0.5 3.78985 -0.276142 4.01371 1.11022e-16 4.01371L 0 3.51371ZM 0 0.5L 6 0.5L 6 -0.5L 0 -0.5L 0 0.5ZM 5.5 0L 5.5 3.51371L 6.5 3.51371L 6.5 0L 5.5 0ZM 6 3.01371L 0 3.01371L 0 4.01371L 6 4.01371L 6 3.01371ZM 0.5 3.51371L 0.5 0L -0.5 0L -0.5 3.51371L 0.5 3.51371Z"/>
<path id="path5_stroke" d="M 0 0L 0 -0.5C -0.276142 -0.5 -0.5 -0.276142 -0.5 1.11022e-16L 0 0ZM 8 0L 8.5 0C 8.5 -0.276142 8.27614 -0.5 8 -0.5L 8 0ZM 8 5.52154L 8 6.02154C 8.27614 6.02154 8.5 5.79768 8.5 5.52154L 8 5.52154ZM 0 5.52154L -0.5 5.52154C -0.5 5.79768 -0.276142 6.02154 1.11022e-16 6.02154L 0 5.52154ZM 0 0.5L 8 0.5L 8 -0.5L 0 -0.5L 0 0.5ZM 7.5 0L 7.5 5.52154L 8.5 5.52154L 8.5 0L 7.5 0ZM 8 5.02154L 0 5.02154L 0 6.02154L 8 6.02154L 8 5.02154ZM 0.5 5.52154L 0.5 0L -0.5 0L -0.5 5.52154L 0.5 5.52154Z"/>
<path id="path6_stroke" d="M 0.5 0C 0.5 -0.276142 0.276142 -0.5 0 -0.5C -0.276142 -0.5 -0.5 -0.276142 -0.5 0L 0.5 0ZM -0.5 1.00392C -0.5 1.28006 -0.276142 1.50392 0 1.50392C 0.276142 1.50392 0.5 1.28006 0.5 1.00392L -0.5 1.00392ZM -0.5 0L -0.5 1.00392L 0.5 1.00392L 0.5 0L -0.5 0Z"/>
<path id="path7_stroke" d="M 0 -0.5C -0.276142 -0.5 -0.5 -0.276142 -0.5 0C -0.5 0.276142 -0.276142 0.5 0 0.5L 0 -0.5ZM 1.5 0.5C 1.77614 0.5 2 0.276142 2 0C 2 -0.276142 1.77614 -0.5 1.5 -0.5L 1.5 0.5ZM 0 0.5L 1.5 0.5L 1.5 -0.5L 0 -0.5L 0 0.5Z"/>
<path id="path8_stroke" d="M 0 -0.5C -0.276142 -0.5 -0.5 -0.276142 -0.5 0C -0.5 0.276142 -0.276142 0.5 0 0.5L 0 -0.5ZM 4 0.5C 4.27614 0.5 4.5 0.276142 4.5 0C 4.5 -0.276142 4.27614 -0.5 4 -0.5L 4 0.5ZM 0 0.5L 4 0.5L 4 -0.5L 0 -0.5L 0 0.5Z"/>
</defs>
</svg>
