<svg width="15" height="15" viewBox="0 0 15 15" version="1.1" xmlns="http://www.w3.org/2000/svg" xmlns:xlink="http://www.w3.org/1999/xlink">
<title>Group.svg</title>
<desc>Created using Figma</desc>
<g id="Canvas" transform="translate(-3088 656)">
<g id="Group">
<g id="Vector">
<use xlink:href="#path0_stroke" transform="matrix(0.707107 -0.707107 0.707107 0.707107 3087 -649)" fill="#BDBDBD"/>
</g>
<g id="Vector">
<use xlink:href="#path1_stroke" transform="translate(3099 -644.998)" fill="#BDBDBD"/>
</g>
</g>
</g>
<defs>
<path id="path0_stroke" d="M 10.8137 5.65685C 10.8137 8.50491 8.50491 10.8137 5.65685 10.8137L 5.65685 11.8137C 9.05719 11.8137 11.8137 9.05719 11.8137 5.65685L 10.8137 5.65685ZM 5.65685 10.8137C 2.8088 10.8137 0.5 8.50491 0.5 5.65685L -0.5 5.65685C -0.5 9.05719 2.25652 11.8137 5.65685 11.8137L 5.65685 10.8137ZM 0.5 5.65685C 0.5 2.8088 2.8088 0.5 5.65685 0.5L 5.65685 -0.5C 2.25652 -0.5 -0.5 2.25652 -0.5 5.65685L 0.5 5.65685ZM 5.65685 0.5C 8.50491 0.5 10.8137 2.8088 10.8137 5.65685L 11.8137 5.65685C 11.8137 2.25652 9.05719 -0.5 5.65685 -0.5L 5.65685 0.5Z"/>
<path id="path1_stroke" d="M 2.84611 3.55321C 3.04137 3.74848 3.35795 3.74848 3.55321 3.55321C 3.74847 3.35795 3.74847 3.04137 3.55321 2.84611L 2.84611 3.55321ZM 0.353553 -0.353553C 0.158291 -0.548816 -0.158291 -0.548816 -0.353553 -0.353554C -0.548816 -0.158291 -0.548816 0.158291 -0.353554 0.353553L 0.353553 -0.353553ZM 3.55321 2.84611L 0.353553 -0.353553L -0.353554 0.353553L 2.84611 3.55321L 3.55321 2.84611Z"/>
</defs>
</svg>
