<svg width="12" height="11" viewBox="0 0 12 11" version="1.1" xmlns="http://www.w3.org/2000/svg" xmlns:xlink="http://www.w3.org/1999/xlink">
<title>Group.svg</title>
<desc>Created using Figma</desc>
<g id="Canvas" transform="translate(-3520 269)">
<g id="Group">
<g id="Vector">
<use xlink:href="#path0_stroke" transform="translate(3521 -268)" fill="#828282"/>
</g>
</g>
</g>
<defs>
<path id="path0_stroke" d="M 9.77529 4.07986L 9.44553 3.70384L 9.4371 3.71159L 9.77529 4.07986ZM 9.37892 2.93441L 9.31138 3.42993L 9.32134 3.43108L 9.37892 2.93441ZM 7.16823 2.63309L 7.23575 2.13767L 7.23381 2.13741L 7.16823 2.63309ZM 6.6303 2.26531L 7.07442 2.0356L 7.0729 2.0327L 6.6303 2.26531ZM 5.64174 0.384282L 5.19359 0.606324L 5.19914 0.616888L 5.64174 0.384282ZM 4.35826 0.384282L 4.80099 0.616954L 4.80629 0.606261L 4.35826 0.384282ZM 3.3697 2.26531L 2.92709 2.0327L 2.92559 2.03561L 3.3697 2.26531ZM 2.83177 2.63309L 2.76619 2.13741L 2.76425 2.13767L 2.83177 2.63309ZM 0.62108 2.93441L 0.67867 3.43118L 0.688606 3.42983L 0.62108 2.93441ZM 0.224713 4.07986L 0.562989 3.71149L 0.55438 3.70394L 0.224713 4.07986ZM 1.82434 5.54879L 1.48615 5.91708L 1.48842 5.91914L 1.82434 5.54879ZM 2.00582 5.82164L 1.53326 5.985L 2.00582 5.82164ZM 2.0296 6.14257L 1.53822 6.05007L 1.53775 6.05265L 2.0296 6.14257ZM 1.65211 8.20748L 2.14171 8.30967L 2.14396 8.2974L 1.65211 8.20748ZM 1.93038 8.87287L 2.21237 8.45998L 1.93038 8.87287ZM 2.69021 8.91647L 2.46904 8.4679L 2.45909 8.47309L 2.69021 8.91647ZM 4.66733 7.94161L 4.88845 8.39007L 4.89095 8.38882L 4.66733 7.94161ZM 5.33267 7.94161L 5.10904 8.38883L 5.11155 8.39007L 5.33267 7.94161ZM 7.30979 8.91647L 7.54097 8.47298L 7.5309 8.46802L 7.30979 8.91647ZM 8.06961 8.87287L 7.78762 8.45998L 8.06961 8.87287ZM 8.34789 8.20748L 7.85587 8.29733L 7.85844 8.30964L 8.34789 8.20748ZM 7.9704 6.14035L 8.46227 6.05053L 8.46205 6.04937L 7.9704 6.14035ZM 8.17566 5.54879L 8.51184 5.91891L 8.51385 5.91707L 8.17566 5.54879ZM 10.105 4.45579C 10.2537 4.31853 10.4012 4.08486 10.4596 3.89283L 9.49541 3.62769C 9.48655 3.68052 9.49371 3.66859 9.44562 3.70394L 10.105 4.45579ZM 10.4596 3.89283C 10.5077 3.69659 10.4986 3.41796 10.4379 3.22516L 9.49284 3.55217C 9.51531 3.59988 9.51465 3.57906 9.49541 3.62769L 10.4596 3.89283ZM 10.4379 3.22516C 10.3672 3.03744 10.2056 2.81391 10.0488 2.68605L 9.4364 3.47661C 9.48732 3.50967 9.48028 3.49937 9.49284 3.55217L 10.4379 3.22516ZM 10.0488 2.68605C 9.8878 2.56733 9.6361 2.46541 9.4365 2.43774L 9.32134 3.43108C 9.38901 3.4344 9.38962 3.43441 9.4364 3.47661L 10.0488 2.68605ZM 9.44644 2.43899L 7.23575 2.13767L 7.1007 3.12851L 9.31139 3.42983L 9.44644 2.43899ZM 7.23381 2.13741C 7.17578 2.13312 7.17572 2.13324 7.13257 2.09951L 6.56817 2.92501C 6.71262 3.01955 6.93088 3.10267 7.10264 3.12877L 7.23381 2.13741ZM 7.13257 2.09951C 7.08675 2.07265 7.09292 2.07992 7.07441 2.03561L 6.18618 2.495C 6.26906 2.64672 6.42638 2.8236 6.56817 2.92501L 7.13257 2.09951ZM 7.0729 2.0327L 6.08434 0.151677L 5.19914 0.616888L 6.1877 2.49791L 7.0729 2.0327ZM 6.08976 0.162303C 5.99603 -0.0150226 5.80859 -0.2165 5.63743 -0.324725L 5.12368 0.533216C 5.17989 0.561147 5.17369 0.553983 5.19371 0.606261L 6.08976 0.162303ZM 5.63743 -0.324725C 5.46317 -0.423687 5.20148 -0.495539 5 -0.5L 5 0.5C 5.06819 0.495539 5.07056 0.496021 5.12368 0.533216L 5.63743 -0.324725ZM 5 -0.5C 4.79852 -0.495539 4.53683 -0.423687 4.36257 -0.324725L 4.87632 0.533216C 4.92944 0.496021 4.93181 0.495539 5 0.5L 5 -0.5ZM 4.36257 -0.324725C 4.19141 -0.2165 4.00397 -0.0150226 3.91024 0.162303L 4.80629 0.606261C 4.82631 0.553983 4.82011 0.561147 4.87632 0.533216L 4.36257 -0.324725ZM 3.91566 0.151677L 2.9271 2.0327L 3.8123 2.49791L 4.80086 0.616888L 3.91566 0.151677ZM 2.92559 2.03561C 2.90708 2.07992 2.91325 2.07265 2.86743 2.09951L 3.43183 2.92501C 3.57362 2.8236 3.73094 2.64672 3.81382 2.495L 2.92559 2.03561ZM 2.86743 2.09951C 2.82428 2.13324 2.82422 2.13312 2.76619 2.13741L 2.89736 3.12877C 3.06912 3.10267 3.28738 3.01955 3.43183 2.92501L 2.86743 2.09951ZM 2.76425 2.13767L 0.553554 2.43899L 0.688606 3.42983L 2.8993 3.12851L 2.76425 2.13767ZM 0.563502 2.43774C 0.363898 2.46541 0.112194 2.56733 -0.0487751 2.68605L 0.563601 3.47661C 0.610377 3.43441 0.61099 3.4344 0.678659 3.43108L 0.563502 2.43774ZM -0.0487751 2.68605C -0.205601 2.81391 -0.367197 3.03744 -0.437862 3.22516L 0.507159 3.55217C 0.51972 3.49937 0.512681 3.50967 0.563601 3.47661L -0.0487751 2.68605ZM -0.437862 3.22516C -0.498621 3.41796 -0.507721 3.69659 -0.459626 3.89283L 0.504585 3.62769C 0.485349 3.57906 0.484692 3.59988 0.507159 3.55217L -0.437862 3.22516ZM -0.459626 3.89283C -0.401161 4.08486 -0.25369 4.31853 -0.104955 4.45579L 0.55438 3.70394C 0.506292 3.66859 0.513451 3.68052 0.504585 3.62769L -0.459626 3.89283ZM -0.113475 4.44814L 1.48615 5.91707L 2.16253 5.18051L 0.5629 3.71159L -0.113475 4.44814ZM 1.48842 5.91914C 1.5287 5.95053 1.52198 5.94003 1.53326 5.985L 2.47838 5.65828C 2.41808 5.49619 2.28672 5.2983 2.16026 5.17844L 1.48842 5.91914ZM 1.53326 5.985C 1.55192 6.02617 1.55056 6.00737 1.53823 6.05007L 2.52097 6.23506C 2.54899 6.06339 2.53131 5.82418 2.47838 5.65828L 1.53326 5.985ZM 1.53775 6.05265L 1.16026 8.11757L 2.14396 8.2974L 2.52145 6.23248L 1.53775 6.05265ZM 1.16266 8.10533C 1.12692 8.30438 1.15365 8.58225 1.22659 8.77122L 2.14916 8.38538C 2.12351 8.33859 2.12542 8.35915 2.14156 8.30964L 1.16266 8.10533ZM 1.22659 8.77122C 1.30895 8.95429 1.48394 9.16741 1.64839 9.28577L 2.21237 8.45998C 2.15869 8.42935 2.1654 8.43807 2.14916 8.38538L 1.22659 8.77122ZM 1.64839 9.28577C 1.81645 9.39488 2.07382 9.48191 2.27489 9.49794L 2.33217 8.49958C 2.26401 8.50016 2.26245 8.49984 2.21237 8.45998L 1.64839 9.28577ZM 2.27489 9.49794C 2.4762 9.50503 2.74145 9.44845 2.92134 9.35984L 2.45909 8.47309C 2.40315 8.50741 2.40008 8.50794 2.33217 8.49958L 2.27489 9.49794ZM 2.91133 9.36492L 4.88845 8.39007L 4.44622 7.49316L 2.4691 8.46802L 2.91133 9.36492ZM 4.89095 8.38882C 4.93977 8.36061 4.94142 8.36031 5 8.36363L 5 7.36363C 4.82654 7.36694 4.59971 7.42021 4.44372 7.49441L 4.89095 8.38882ZM 5 8.36363C 5.05858 8.36031 5.06023 8.36061 5.10905 8.38882L 5.55628 7.49441C 5.40029 7.42021 5.17346 7.36694 5 7.36363L 5 8.36363ZM 5.11155 8.39007L 7.08867 9.36492L 7.5309 8.46802L 5.55378 7.49316L 5.11155 8.39007ZM 7.07866 9.35984C 7.25855 9.44845 7.5238 9.50503 7.72511 9.49794L 7.66783 8.49958C 7.59992 8.50794 7.59685 8.50741 7.54091 8.47309L 7.07866 9.35984ZM 7.72511 9.49794C 7.92618 9.48191 8.18355 9.39488 8.3516 9.28577L 7.78762 8.45998C 7.73755 8.49984 7.73599 8.50016 7.66783 8.49958L 7.72511 9.49794ZM 8.3516 9.28577C 8.51606 9.16741 8.69105 8.95429 8.7734 8.77122L 7.85084 8.38538C 7.83459 8.43807 7.84131 8.42936 7.78762 8.45998L 8.3516 9.28577ZM 8.7734 8.77122C 8.84635 8.58225 8.87308 8.30438 8.83734 8.10533L 7.85844 8.30964C 7.87458 8.35915 7.87649 8.33859 7.85084 8.38538L 8.7734 8.77122ZM 8.83976 8.11766L 8.46226 6.05053L 7.47853 6.23017L 7.85603 8.29731L 8.83976 8.11766ZM 8.46205 6.04937C 8.44991 6.00679 8.44852 6.02554 8.46714 5.98453L 7.5224 5.65672C 7.46947 5.82194 7.45134 6.06022 7.47875 6.23133L 8.46205 6.04937ZM 8.46714 5.98453C 8.47845 5.93974 8.47174 5.95021 8.51184 5.91891L 7.83948 5.17868C 7.71356 5.29816 7.58265 5.49528 7.5224 5.65672L 8.46714 5.98453ZM 8.51385 5.91707L 10.1135 4.44814L 9.4371 3.71159L 7.83747 5.18051L 8.51385 5.91707Z"/>
</defs>
</svg>
